<?xml version="1.0" encoding="UTF-8"?><svg id="Laag_1" xmlns="http://www.w3.org/2000/svg" viewBox="0 0 402.36 53.42"><defs><style>.cls-1{fill:#e80080;}.cls-2{fill:#2d363c;}</style></defs><path class="cls-2" d="m79.22,29.95l-11.66-18.07v17.58c0,.5-.4.9-.9.9h-4.08c-.5,0-.9-.4-.9-.9V1.15c0-.5.4-.9.9-.9h3.85c.31,0,.59.16.76.41l11.66,18.03V1.15c0-.5.4-.9.9-.9h4.08c.5,0,.9.4.9.9v28.31c0,.5-.4.9-.9.9h-3.85c-.31,0-.59-.16-.76-.41Z"/><path class="cls-2" d="m109.59,29.95l-11.66-18.07v17.58c0,.5-.4.9-.9.9h-4.08c-.5,0-.9-.4-.9-.9V1.15c0-.5.4-.9.9-.9h3.85c.31,0,.59.16.76.41l11.66,18.03V1.15c0-.5.4-.9.9-.9h4.08c.5,0,.9.4.9.9v28.31c0,.5-.4.9-.9.9h-3.85c-.31,0-.59-.16-.76-.41Z"/><path class="cls-2" d="m139.1,29.75l-1.57-4.71h-10.7l-1.61,4.72c-.12.36-.47.61-.85.61h-4.2c-.62,0-1.06-.62-.85-1.21L129.61.85c.13-.36.47-.59.85-.59h3.35c.38,0,.72.24.85.59l10.34,28.31c.21.59-.22,1.21-.85,1.21h-4.2c-.39,0-.73-.25-.85-.62Zm-6.82-20.62l-3.81,10.95h7.49l-3.68-10.95Z"/><path class="cls-2" d="m149.45,29.47V1.15c0-.5.4-.9.9-.9h18.04c.5,0,.9.4.9.9v3.44c0,.5-.4.9-.9.9h-13.06v7.06h10.98c.5,0,.9.4.9.9v3.45c0,.5-.4.9-.9.9h-10.98v7.32h13.06c.5,0,.9.4.9.9v3.44c0,.5-.4.9-.9.9h-18.04c-.5,0-.9-.4-.9-.9Z"/><path class="cls-2" d="m191.07,29.86l-5.63-11.51h-4.23v11.11c0,.5-.4.9-.9.9h-4.08c-.5,0-.9-.4-.9-.9V1.15c0-.5.4-.9.9-.9h10.9c6.13,0,9.77,4.19,9.77,9.22,0,4.23-2.58,6.85-5.5,7.91l6.04,11.67c.31.6-.12,1.31-.8,1.31h-4.77c-.34,0-.66-.2-.81-.5Zm-4.32-24.36h-5.54v7.95h5.54c2.58,0,4.27-1.65,4.27-3.98s-1.69-3.98-4.27-3.98Z"/><path class="cls-2" d="m214.47,5.5v23.97c0,.5-.4.9-.9.9h-4.08c-.5,0-.9-.4-.9-.9V5.5h-6.97c-.5,0-.9-.4-.9-.9V1.15c0-.5.4-.9.9-.9h19.81c.5,0,.9.4.9.9v3.44c0,.5-.4.9-.9.9h-6.97Z"/><path class="cls-2" d="m235.49,30.62c-4.21,0-7.48-.83-10.28-3.3-.4-.35-.43-.96-.06-1.33l2.55-2.55c.32-.32.83-.36,1.18-.07,1.83,1.49,4.17,2.01,6.69,2.01,3.47,0,5.33-1.31,5.33-3.72,0-1.06-.3-1.95-.93-2.54-.59-.55-1.27-.85-2.66-1.06l-3.64-.51c-2.58-.38-4.48-1.18-5.84-2.5-1.44-1.44-2.16-3.38-2.16-5.92C225.68,3.76,229.66,0,236.17,0,239.92,0,242.73.83,245.14,2.83c.42.35.46.97.07,1.35l-2.46,2.43c-.31.31-.81.35-1.16.08-1.78-1.37-3.81-1.58-5.6-1.58-3.13,0-4.65,1.73-4.65,3.81,0,.76.25,1.57.89,2.16.59.55,1.56,1.01,2.79,1.18l3.55.51c2.75.38,4.48,1.14,5.75,2.33,1.61,1.52,2.33,3.72,2.33,6.39,0,5.84-4.86,9.14-11.17,9.14Z"/><path class="cls-1" d="m269.42,29.75l-1.57-4.71h-10.7l-1.61,4.72c-.12.36-.47.61-.85.61h-4.2c-.62,0-1.06-.62-.85-1.21l10.3-28.31c.13-.36.47-.59.85-.59h3.35c.38,0,.72.24.85.59l10.34,28.31c.21.59-.22,1.21-.85,1.21h-4.2c-.39,0-.73-.25-.85-.62Zm-6.82-20.62l-3.81,10.95h7.49l-3.68-10.95Z"/><path class="cls-1" d="m291.45,19.03h-5.79v10.44c0,.5-.4.9-.9.9h-4.08c-.5,0-.9-.4-.9-.9V1.15c0-.5.4-.9.9-.9h10.77c6.22,0,9.94,4.27,9.94,9.39s-3.72,9.39-9.94,9.39Zm-.3-13.53h-5.5v8.25h5.5c2.66,0,4.36-1.65,4.36-4.1s-1.69-4.15-4.36-4.15Z"/><path class="cls-1" d="m318.01,19.03h-5.79v10.44c0,.5-.4.9-.9.9h-4.08c-.5,0-.9-.4-.9-.9V1.15c0-.5.4-.9.9-.9h10.77c6.22,0,9.94,4.27,9.94,9.39s-3.72,9.39-9.94,9.39Zm-.3-13.53h-5.5v8.25h5.5c2.66,0,4.36-1.65,4.36-4.1s-1.69-4.15-4.36-4.15Z"/><path class="cls-1" d="m332.4,29.47V1.15c0-.5.4-.9.9-.9h18.04c.5,0,.9.4.9.9v3.44c0,.5-.4.9-.9.9h-13.06v7.06h10.98c.5,0,.9.4.9.9v3.45c0,.5-.4.9-.9.9h-10.98v7.32h13.06c.5,0,.9.4.9.9v3.44c0,.5-.4.9-.9.9h-18.04c-.5,0-.9-.4-.9-.9Z"/><path class="cls-1" d="m358.29,29.47V1.15c0-.5.4-.9.9-.9h4.08c.5,0,.9.4.9.9v23.97h12.76c.5,0,.9.4.9.9v3.44c0,.5-.4.9-.9.9h-17.74c-.5,0-.9-.4-.9-.9Z"/><path class="cls-1" d="m391.19,30.62c-4.21,0-7.48-.83-10.28-3.3-.4-.35-.43-.96-.06-1.33l2.55-2.55c.32-.32.83-.36,1.18-.07,1.83,1.49,4.17,2.01,6.69,2.01,3.47,0,5.33-1.31,5.33-3.72,0-1.06-.3-1.95-.93-2.54-.59-.55-1.27-.85-2.66-1.06l-3.64-.51c-2.58-.38-4.48-1.18-5.84-2.5-1.44-1.44-2.16-3.38-2.16-5.92C381.38,3.76,385.36,0,391.87,0,395.62,0,398.43.83,400.84,2.83c.42.35.46.97.07,1.35l-2.46,2.43c-.31.31-.81.35-1.16.08-1.78-1.37-3.81-1.58-5.6-1.58-3.13,0-4.65,1.73-4.65,3.81,0,.76.25,1.57.89,2.16.59.55,1.56,1.01,2.79,1.18l3.55.51c2.75.38,4.48,1.14,5.75,2.33,1.61,1.52,2.33,3.72,2.33,6.39,0,5.84-4.86,9.14-11.17,9.14Z"/><path class="cls-2" d="m51.33,29.75l-1.57-4.71h-10.7l-1.61,4.72c-.12.36-.47.61-.85.61h-4.2c-.62,0-1.06-.62-.85-1.21L41.84.85c.13-.36.47-.59.85-.59h3.35c.38,0,.72.24.85.59l10.34,28.31c.21.59-.22,1.21-.85,1.21h-4.2c-.39,0-.73-.25-.85-.62Zm-6.82-20.62l-3.81,10.95h7.49l-3.68-10.95Z"/><path class="cls-2" d="m21.68,29.39V12.77l-6.47,13.41c-.51,1.06-2.02,1.06-2.53,0l-6.5-13.41v16.63c0,.5-.4.9-.9.9H1.21c-.5,0-.9-.4-.9-.9V1.12C.31.62.71.22,1.21.22h4.32c.35,0,.66.2.81.51l7.61,15.75L21.52.73c.15-.31.47-.51.81-.51h4.32c.5,0,.9.4.9.9v28.27c0,.5-.4.9-.9.9h-4.07c-.5,0-.9-.4-.9-.9Z"/><path class="cls-1" d="m6.59,53.29v-.97c-.78.78-1.53,1.1-2.86,1.1s-2.23-.32-2.88-.97c-.55-.57-.85-1.4-.85-2.31,0-1.8,1.25-3.09,3.71-3.09h2.84v-.76c0-1.36-.68-2.01-2.35-2.01-1.19,0-1.76.28-2.35,1.04l-1.42-1.33c1.02-1.19,2.08-1.55,3.86-1.55,2.95,0,4.43,1.25,4.43,3.69v7.19h-2.12Zm-.04-4.75h-2.52c-1.27,0-1.93.57-1.93,1.55s.61,1.53,1.97,1.53c.83,0,1.44-.06,2.01-.61.32-.32.47-.83.47-1.59v-.87Z"/><path class="cls-1" d="m24.56,53.29v-1.14c-.81.97-1.67,1.27-2.84,1.27-1.08,0-2.04-.36-2.63-.95-1.08-1.08-1.21-2.93-1.21-4.56s.13-3.45,1.21-4.54c.59-.59,1.53-.95,2.61-.95,1.14,0,2.04.28,2.82,1.21v-5.43h2.16v15.09h-2.12Zm-2.27-8.95c-1.95,0-2.25,1.65-2.25,3.56s.3,3.58,2.25,3.58,2.23-1.67,2.23-3.58-.28-3.56-2.23-3.56Z"/><path class="cls-1" d="m40.62,53.29h-1.76l-3.94-10.75h2.29l2.54,7.57,2.52-7.57h2.29l-3.94,10.75Z"/><path class="cls-1" d="m59.78,52.15c-.7.72-1.76,1.27-3.22,1.27s-2.5-.55-3.2-1.27c-1.02-1.06-1.27-2.42-1.27-4.24s.25-3.16,1.27-4.22c.7-.72,1.74-1.27,3.2-1.27s2.52.55,3.22,1.27c1.02,1.06,1.27,2.42,1.27,4.22s-.25,3.18-1.27,4.24Zm-1.63-7.19c-.4-.4-.95-.62-1.59-.62s-1.17.21-1.57.62c-.66.66-.74,1.78-.74,2.95s.08,2.29.74,2.95c.4.4.93.64,1.57.64s1.19-.23,1.59-.64c.66-.66.74-1.78.74-2.95s-.09-2.29-.74-2.95Z"/><path class="cls-1" d="m74.57,53.42c-2.42,0-4.79-1.48-4.79-5.51s2.37-5.49,4.79-5.49c1.48,0,2.52.42,3.54,1.51l-1.48,1.44c-.68-.74-1.21-1.02-2.06-1.02s-1.53.34-1.99.95c-.47.59-.64,1.36-.64,2.61s.17,2.04.64,2.63c.47.61,1.17.95,1.99.95s1.38-.28,2.06-1.02l1.48,1.42c-1.02,1.08-2.06,1.53-3.54,1.53Z"/><path class="cls-1" d="m92.58,53.29v-.97c-.78.78-1.53,1.1-2.86,1.1s-2.23-.32-2.88-.97c-.55-.57-.85-1.4-.85-2.31,0-1.8,1.25-3.09,3.71-3.09h2.84v-.76c0-1.36-.68-2.01-2.35-2.01-1.19,0-1.76.28-2.35,1.04l-1.42-1.33c1.02-1.19,2.08-1.55,3.86-1.55,2.95,0,4.43,1.25,4.43,3.69v7.19h-2.12Zm-.04-4.75h-2.52c-1.27,0-1.93.57-1.93,1.55s.61,1.53,1.97,1.53c.83,0,1.44-.06,2.01-.61.32-.32.47-.83.47-1.59v-.87Z"/><path class="cls-1" d="m107.58,53.29c-2.01,0-2.95-1.44-2.95-2.99v-5.91h-1.23v-1.65h1.23v-3.26h2.16v3.26h2.08v1.65h-2.08v5.81c0,.78.38,1.25,1.19,1.25h.89v1.84h-1.29Z"/><path class="cls-1" d="m119.46,48.54c0,1.85.98,3.01,2.74,3.01,1.21,0,1.84-.34,2.61-1.1l1.38,1.29c-1.1,1.1-2.14,1.67-4.03,1.67-2.69,0-4.83-1.42-4.83-5.51,0-3.48,1.8-5.49,4.56-5.49s4.56,2.12,4.56,5.17v.95h-6.97Zm4.54-2.97c-.34-.81-1.1-1.36-2.12-1.36s-1.8.55-2.14,1.36c-.21.49-.25.81-.28,1.46h4.83c-.02-.66-.09-.98-.3-1.46Z"/><path class="cls-1" d="m142.2,53.29v-6.55c0-1.68-.95-2.4-2.16-2.4s-2.23.74-2.23,2.4v6.55h-2.16v-10.75h2.12v1.08c.74-.8,1.78-1.21,2.86-1.21s2.01.36,2.65.98c.83.8,1.08,1.82,1.08,3.03v6.87h-2.16Z"/></svg>