<?xml version="1.0" encoding="UTF-8" standalone="no"?><!DOCTYPE svg PUBLIC "-//W3C//DTD SVG 1.1//EN" "http://www.w3.org/Graphics/SVG/1.1/DTD/svg11.dtd"><svg width="100%" height="100%" viewBox="0 0 444 190" version="1.1" xmlns="http://www.w3.org/2000/svg" xmlns:xlink="http://www.w3.org/1999/xlink" xml:space="preserve" xmlns:serif="http://www.serif.com/" style="fill-rule:evenodd;clip-rule:evenodd;stroke-linejoin:round;stroke-miterlimit:2;"><path d="M80.659,123.443c0,-0.326 0.216,-3.138 0.216,-3.462c-0,-12.655 -1.189,-24.227 -1.189,-36.017c-0,-6.489 0.324,-13.087 0.324,-19.576c0,-4.543 -0.757,-9.518 -0.757,-13.52c0.216,-1.73 2.055,-3.786 2.811,-5.408c0.758,-1.73 1.948,-4.975 2.056,-5.083c1.838,-2.596 7.03,-2.921 11.249,-2.921l3.569,-0c11.031,-0 20.874,6.165 20.874,17.414c0,9.518 -7.679,13.519 -15.143,16.224c-0,0.324 1.731,0.648 1.839,0.648c13.088,4.327 14.061,22.93 14.061,29.526l0.216,0.434l-0.216,9.843c0,1.406 0,2.379 -1.406,3.461c-0.541,-0 -2.055,2.162 -3.353,2.595c-0.757,-0.108 -3.569,-0.108 -5.516,-0.108c-1.839,-0 -2.379,0.108 -3.569,0.108c0,-0 -1.081,-0.108 -1.406,-0.541c0,-1.297 0.216,-2.595 0.216,-4.109c-0,-7.247 -0.973,-17.197 -5.408,-22.497c-0.433,-0.433 -1.406,-1.73 -2.271,-1.73c0,1.405 0.324,7.787 0.324,10.382l0,0.757c0,0.109 0.109,0.433 0.109,0.758c0,0.216 -0.109,0.541 -0.109,0.647l1.083,12.764c-0.109,0.433 -0.109,0.865 -0.109,1.298c0,1.838 0.432,3.677 0.432,5.516c0,1.406 -0.108,2.055 -0.323,2.055l-2.489,-0.107c-0.973,3.568 -5.299,3.676 -8.977,3.676l-0.648,-0c-0.866,-0 -1.515,0.108 -2.921,0.108c-1.406,-0 -3.028,-0.216 -3.461,-1.189c-0.108,-0.326 -0.108,-1.622 -0.108,-1.946Zm5.191,1.188c0.866,-0 1.514,0.108 2.164,0.108c1.081,-0 6.597,-0 6.597,-1.945c0,-0.11 -0.217,-0.326 -0.217,-0.326l-3.676,-0.108c-0.433,-0 -0.974,0.217 -0.974,0.757c-0.325,-0 -0.757,-0.216 -1.189,-0.216c-0.217,1.406 -2.488,0.325 -2.705,1.73Zm-4.542,-56.566c0,1.839 0.433,3.893 0.433,5.515c0,5.3 -0.108,10.492 -0.108,15.791c0,10.601 0.756,21.2 0.756,31.8l0,2.486c1.839,-0.431 3.786,-2.054 5.625,-2.27l0,-1.839c0,-6.057 -0.974,-13.196 -1.515,-19.793c-1.622,-19.36 -0.108,-44.344 -2.271,-55.485c-0.973,0.541 -3.136,6.165 -3.136,7.463c0,1.406 0.432,2.812 0.432,4.219c0,0.648 -0.108,5.948 -0.108,6.597c0,0.325 0.108,2.487 0.217,2.704c0,0.757 -0.325,1.514 -0.325,2.271l0,0.541Zm102.307,32.988c0,-3.677 0.217,-7.463 0.217,-11.249c0,-12.221 -0.758,-24.768 -0.758,-36.774c0.866,-0.756 3.677,-8.219 4.111,-9.841c2.486,-1.082 5.191,-0.325 7.678,-1.298c1.299,-0 3.353,3.785 3.353,4.542c0.216,0.433 7.139,15.034 7.03,15.25l1.407,3.894l0.324,0.216c1.73,-5.191 3.569,-10.058 4.975,-15.358c0.433,-1.514 6.598,-6.382 8.22,-7.787c3.137,-0 6.057,0.432 9.194,0.541l1.514,-0c1.298,-0 3.029,0.216 3.029,1.405c0,1.082 -0.217,2.055 -0.217,3.029l-1.731,22.496l0,2.38c0,3.245 -0.432,5.732 -0.432,9.086l0,0.432l-1.19,12.222l0,1.623c0,3.784 -0.541,8.003 -0.541,11.681c0,0.972 0.325,1.838 0.325,2.919c0,0.216 0,0.541 -0.325,0.65l0.541,1.081c-1.622,0.216 -2.704,4.219 -3.893,4.219c-0.65,-0 -6.274,-0.541 -6.489,-0.758l-3.895,-0c-0.216,-0 -0.973,-0.757 -1.189,-0.973c1.406,-1.083 2.378,-13.736 2.378,-18.496l0,-1.189c1.083,-8.004 2.164,-20.225 2.164,-22.605c-1.19,2.271 -1.406,4.65 -2.164,6.922c-1.189,3.245 -2.594,6.057 -3.135,9.41c-3.786,2.379 0.432,6.814 -5.733,6.814c-0.541,-0 -1.514,0.108 -2.487,0.108c-1.947,-0 -4.002,-0.324 -4.002,-1.622l-2.704,-5.3c0,0.216 -0.216,1.731 -0.216,2.055l0,0.54c0,2.38 0.541,5.192 0.541,7.464c0,2.703 0,5.515 0.216,8.328c0,0.433 0.432,3.785 0.432,4.218c0,2.92 -0.325,3.028 -1.622,3.028c-0.433,1.081 -1.406,3.028 -1.515,3.137l-1.622,3.461c-0.433,0.865 -3.894,0.973 -6.164,0.973c-4.652,-0 -3.786,-0.541 -5.192,-1.946c0,-6.166 -0.433,-12.655 -0.433,-18.928Zm53.859,14.71l-0,-0.433l9.842,-44.777c0.326,-1.623 0.975,-3.786 0.975,-5.625l-0,-0.865l2.488,-14.277c3.35,-5.948 7.679,-18.17 10.49,-18.17c0.974,-0 2.704,3.786 3.676,4.759c4.005,7.895 5.301,15.25 7.139,23.794c0.433,2.163 2.272,5.192 2.272,7.68l-0,0.648l4.651,16.874c0.433,2.919 1.298,5.839 2.054,8.652l0.218,0.757c-0,0.108 0.108,0.433 0.216,0.541c1.406,4.542 2.811,9.734 3.677,14.601l-0,0.973c-0,0.65 0.108,1.298 0.972,1.407c-0.432,0.649 -2.81,5.841 -4.218,6.272c-3.352,-0 -5.947,1.731 -9.192,1.731c-1.839,-0 -1.839,-1.947 -1.839,-3.57c-0,-0.54 -0,-1.081 -0.108,-1.622c0,-0.324 -0.649,-2.704 -0.649,-3.028c0,-0.109 -0.108,-0.217 -0.108,-0.433c-0.648,-2.811 -3.029,-13.952 -3.785,-13.952c-3.894,-0 -8.112,0.757 -12.005,1.515l-0,0.648c-0,2.055 -0.217,4.435 -0.757,6.598c-0.109,3.245 -0.759,6.382 -0.759,9.734c-0,1.19 -1.405,1.081 -2.379,2.596c-1.622,1.622 0.434,2.271 -5.623,2.271c-3.246,-0 -8.329,-0.108 -8.329,-1.406c-0,-1.622 1.081,-2.488 1.081,-3.893Zm-109.77,-0l-0,-0.433l9.842,-44.777c0.325,-1.623 0.973,-3.786 0.973,-5.625l-0,-0.865l2.488,-14.277c3.353,-5.948 7.679,-18.17 10.492,-18.17c0.973,-0 2.703,3.786 3.677,4.759c4.001,7.895 5.3,15.25 7.138,23.794c0.433,2.163 2.271,5.192 2.271,7.68l-0,0.648l4.651,16.874c0.432,2.919 1.298,5.839 2.055,8.652l0.216,0.757c-0,0.108 0.108,0.433 0.217,0.541c1.405,4.542 2.811,9.734 3.677,14.601l-0,0.973c-0,0.65 0.108,1.298 0.973,1.407c-0.432,0.649 -2.811,5.841 -4.218,6.272c-3.352,-0 -5.948,1.731 -9.193,1.731c-1.839,-0 -1.839,-1.947 -1.839,-3.57c-0,-0.54 -0,-1.081 -0.108,-1.622c-0,-0.324 -0.648,-2.704 -0.648,-3.028c-0,-0.109 -0.109,-0.217 -0.109,-0.433c-0.649,-2.811 -3.029,-13.952 -3.785,-13.952c-3.894,-0 -8.112,0.757 -12.006,1.515l-0,0.648c-0,2.055 -0.217,4.435 -0.758,6.598c-0.107,3.245 -0.756,6.382 -0.756,9.734c-0,1.19 -1.406,1.081 -2.38,2.596c-1.622,1.622 0.433,2.271 -5.624,2.271c-3.245,-0 -8.328,-0.108 -8.328,-1.406c-0,-1.622 1.082,-2.488 1.082,-3.893Zm-37.203,4.65c1.298,-0 2.055,0.324 3.462,0.433c0.108,-0 1.189,-0.325 1.406,-0.325c0.864,-0 1.73,0.433 2.487,0.433c0,-15.358 -2.379,-30.175 -2.379,-40.559l0,-0.757l0.648,-0.541l0.541,-0c3.569,-0 10.924,3.569 10.924,5.624c5.516,8.436 5.732,18.712 5.84,28.446c1.191,-0 1.947,0.107 3.245,0.107c2.38,-0 2.596,-2.379 2.596,-4.542l0,-1.73c0,-12.979 -2.055,-30.501 -15.033,-33.853c-1.299,-0.325 -4.868,-0 -4.868,-1.299c0,-1.189 9.843,-4.001 14.385,-7.03c2.704,-2.595 4.327,-6.165 4.327,-9.95c0,-6.165 -4.652,-12.222 -10.492,-14.493c-2.812,-1.082 -5.948,-1.191 -8.869,-1.191c-5.083,-0 -12.979,0.434 -12.979,2.705c0,2.595 0.541,5.084 0.866,7.57c0.541,3.678 0.325,8.437 0.432,12.222c0.541,12.763 0.109,25.634 0.865,38.396c0.109,1.298 0.433,2.488 0.433,3.678l1.406,16.008l0.216,0.648l0.541,-0Zm-57.535,-25.633c0.217,-2.488 0.649,-5.084 0.649,-7.679l-0,-1.407l1.297,-11.248c-0,-2.38 2.164,-14.277 2.164,-20.766c-0,-0.216 -0.217,-2.38 -0.325,-2.705l-0,-0.756c-0,-1.622 4.976,-7.463 5.733,-10.924c0.324,-1.514 2.811,-1.731 4.002,-1.731c9.193,-0 16.548,4.111 20.117,12.871c0.433,0.865 1.622,3.461 1.622,4.867l1.298,11.681c0.216,2.38 0.541,4.759 0.541,7.247l-0,1.73c-0,0.325 -0.433,2.272 -0.541,2.597c-0,6.705 -2.487,17.845 -7.57,26.498c-0.109,0.108 -0.541,0.649 -0.541,0.757l-0,1.298c-0.109,0.541 -1.19,2.055 -1.407,2.272c-4.11,6.489 -17.089,11.031 -25.633,11.031c-0.541,-0 -1.838,-0.217 -2.055,-0.324l-0.217,-0.324l-0,-3.137c0.325,-7.355 0.217,-14.602 0.866,-21.848Zm154.219,25.201c2.055,-0 4.325,-0.108 6.272,-0.217c0.974,-0.973 2.92,-3.786 2.92,-5.083c-3.568,-0 -9.192,3.569 -9.192,5.3Zm59.916,-0.541c0.865,-0 2.272,-1.839 2.272,-2.596l-4.977,-0c-0.54,0.216 -1.08,0.324 -1.622,0.324c-0.216,-0 -0.432,-0.108 -0.649,-0.108l-1.73,1.731c6.599,0.541 6.599,0.649 6.706,0.649Zm-109.771,-0c0.864,-0 2.271,-1.839 2.271,-2.596l-4.975,-0c-0.541,0.216 -1.082,0.324 -1.623,0.324c-0.216,-0 -0.432,-0.108 -0.648,-0.108l-1.731,1.731c6.597,0.541 6.597,0.649 6.706,0.649Zm-100.686,-1.298c6.164,-0 13.086,-2.488 17.845,-5.299l-0.325,-0.326c-5.731,2.489 -9.409,2.272 -15.466,2.705c-0.108,-0 -0.432,0.215 -0.54,0.215l-2.596,2.705l1.082,-0Zm238.146,-0.108c0.323,-0.108 1.838,-0.433 6.165,-1.19l1.513,-2.812c-3.677,1.622 -4.65,0.757 -7.678,4.002Zm-109.772,-0c0.325,-0.108 1.838,-0.433 6.165,-1.19l1.515,-2.812c-3.678,1.622 -4.652,0.757 -7.68,4.002Zm20.869,-0.109c1.622,-0 2.379,-2.488 4.001,-3.028l0,-2.704l-0.325,-0.649c-0.864,-4.868 -0.432,-10.382 -0.973,-15.25c0,-0.432 -0.433,-4.002 -0.433,-4.543c-0.216,-1.622 -0.324,-3.245 -0.324,-4.759c0,-1.838 0.108,-3.677 0.108,-5.407c0,-1.515 -0.108,-3.029 -0.325,-4.651c0,-1.299 0.109,-4.976 0.109,-8.761c0,-11.465 -0.649,-12.33 -0.649,-18.712c0,-0.648 0.109,-1.189 0.109,-1.73c-1.407,1.622 -2.38,5.299 -2.38,7.354c0,0.109 0.108,1.839 0.432,2.164l0,50.402c0.325,0.756 -0.108,10.274 0.65,10.274Zm58.726,-27.363c-0,0.108 0.109,0.217 0.217,0.217c-1.19,5.947 -2.488,11.897 -3.895,17.845c-1.189,2.38 -2.054,6.489 -2.054,8.652c3.461,-0.972 2.271,-5.191 3.461,-7.894l1.731,-9.627l5.516,-20.117c-0,-0.108 0.649,-3.137 0.756,-3.894l6.382,-28.445c0.324,-0.865 1.19,-5.733 1.946,-8.977l-0,-0.433c-0.433,0.325 -0.433,0.974 -0.649,1.406c-1.622,3.353 -3.136,6.597 -4.974,9.735c-1.189,2.811 -1.299,6.164 -1.731,9.409c-0.217,0.974 -1.081,3.028 -1.081,4.218c-0,0.109 -0,0.325 0.107,0.433l-1.729,10.167c-0,0.973 -0.542,2.054 -0.758,2.92c-1.081,4.758 -2.054,9.517 -3.028,14.169c-0.108,-0 -0.217,0.108 -0.217,0.216Zm-109.771,-0c-0,0.108 0.108,0.217 0.216,0.217c-1.189,5.947 -2.487,11.897 -3.893,17.845c-1.19,2.38 -2.055,6.489 -2.055,8.652c3.461,-0.972 2.27,-5.191 3.461,-7.894l1.73,-9.627l5.516,-20.117c-0,-0.108 0.649,-3.137 0.757,-3.894l6.381,-28.445c0.325,-0.865 1.191,-5.733 1.947,-8.977l-0,-0.433c-0.432,0.325 -0.432,0.974 -0.648,1.406c-1.623,3.353 -3.137,6.597 -4.976,9.735c-1.19,2.811 -1.298,6.164 -1.73,9.409c-0.216,0.974 -1.082,3.028 -1.082,4.218c-0,0.109 -0,0.325 0.108,0.433l-1.73,10.167c-0,0.973 -0.541,2.054 -0.757,2.92c-1.082,4.758 -2.055,9.517 -3.029,14.169c-0.108,-0 -0.216,0.108 -0.216,0.216Zm-99.605,-4.868c-0,1.515 -0.325,3.246 -0.432,4.543c-0.541,7.679 -1.19,15.25 -1.19,22.822l-0,4.001l0.541,-0c4.002,-3.245 4.002,-3.677 4.002,-12.654c0.756,-14.06 1.731,-28.337 2.92,-42.398c0.433,-5.624 1.189,-11.573 1.189,-17.413l-0,-1.298c-2.812,2.812 -3.677,6.922 -3.677,11.464c-0,0.758 0.108,1.623 0.108,2.272l-3.461,27.796l-0,0.865Zm235.335,20.01c0.863,3.569 1.839,7.679 2.486,11.356c-0,-0.648 2.597,-1.189 3.029,-3.028c-0.108,-3.461 -1.838,-6.922 -2.487,-10.384c-1.406,-4.002 -1.516,-9.733 -3.028,-10.599l-0.433,0.542c-0.649,1.297 -1.515,3.785 -1.515,4.109c-0,2.813 1.298,5.3 1.948,8.004Zm-109.773,-0c0.866,3.569 1.839,7.679 2.489,11.356c-0,-0.648 2.595,-1.189 3.027,-3.028c-0.107,-3.461 -1.838,-6.922 -2.486,-10.384c-1.407,-4.002 -1.515,-9.733 -3.03,-10.599l-0.431,0.542c-0.65,1.297 -1.514,3.785 -1.514,4.109c-0,2.813 1.297,5.3 1.945,8.004Zm-45.53,10.167c0.325,-0 0.541,-0.758 0.541,-1.082c-1.622,-0 -3.136,0.108 -4.65,0.433c0.432,0.541 3.353,0.649 4.109,0.649Zm60.024,-0.541c-0,0.107 -0,0.216 -0.108,0.216c-0.108,-0 -0.217,-0.109 -0.217,-0.216c-0,-0.108 0.109,-0.217 0.217,-0.217c0.108,-0 0.108,0.109 0.108,0.217Zm109.77,-0c-0,0.107 -0,0.216 -0.107,0.216c-0.108,-0 -0.216,-0.109 -0.216,-0.216c-0,-0.108 0.108,-0.217 0.216,-0.217c0.107,-0 0.107,0.109 0.107,0.217Zm-41.207,-0.217l6.923,-0l-0,-0.54c-0,-1.839 0.432,-3.461 0.756,-5.191c0.649,-5.084 1.189,-10.276 1.515,-15.359c-0,-2.813 1.08,-2.921 2.488,-2.921c0.107,-0 0.647,0.108 0.647,0.217c4.977,-0.433 9.844,-1.298 14.819,-1.298c1.73,-0 3.245,6.705 4.001,10.383c-0,0.217 0.108,0.433 0.108,0.65c-0,0.214 0.109,0.431 0.109,0.648c0.108,0.324 0.108,0.541 0.108,0.757c-0,-0.433 1.622,10.384 3.461,10.384c0.865,-0 4.65,-0.434 4.65,-1.515c-0.215,-0.324 -0.215,-0.541 -0.215,-0.974c-1.082,-5.408 -2.055,-10.058 -3.461,-15.033c-0,-0.217 -0.217,-0.649 -0.217,-0.758l-6.274,-23.037c-0.323,-4.218 -2.379,-8.004 -2.919,-12.113l-4.434,-16.874c-1.298,-1.514 -2.813,-5.083 -4.436,-7.462c-4.541,14.925 -6.813,28.229 -10.923,47.156c-0,1.623 -1.622,4.543 -1.946,5.841c-0.758,1.947 -1.299,4.327 -1.732,6.489l-3.568,18.82l-0,0.432c-0,0.217 0.107,1.298 0.54,1.298Zm-109.771,-0l6.922,-0l-0,-0.54c-0,-1.839 0.433,-3.461 0.757,-5.191c0.649,-5.084 1.19,-10.276 1.514,-15.359c-0,-2.813 1.082,-2.921 2.488,-2.921c0.108,-0 0.649,0.108 0.649,0.217c4.975,-0.433 9.842,-1.298 14.817,-1.298c1.731,-0 3.245,6.705 4.002,10.383c-0,0.217 0.109,0.433 0.109,0.65c-0,0.214 0.108,0.431 0.108,0.648c0.108,0.324 0.108,0.541 0.108,0.757c-0,-0.433 1.622,10.384 3.461,10.384c0.865,-0 4.65,-0.434 4.65,-1.515c-0.216,-0.324 -0.216,-0.541 -0.216,-0.974c-1.081,-5.408 -2.055,-10.058 -3.461,-15.033c-0,-0.217 -0.216,-0.649 -0.216,-0.758l-6.273,-23.037c-0.325,-4.218 -2.38,-8.004 -2.921,-12.113l-4.434,-16.874c-1.298,-1.514 -2.812,-5.083 -4.434,-7.462c-4.543,14.925 -6.814,28.229 -10.924,47.156c-0,1.623 -1.623,4.543 -1.947,5.841c-0.757,1.947 -1.298,4.327 -1.731,6.489l-3.569,18.82l-0,0.432c-0,0.217 0.108,1.298 0.541,1.298Zm-27.036,-1.73c0.109,0.432 0.109,1.514 0.217,1.514l4.218,-2.163c0,-11.357 -0.757,-31.149 -14.06,-31.906l0,2.812c0,0.973 0,1.839 0.108,2.812c1.622,1.73 3.353,1.947 5.299,4.327c4.11,7.354 3.786,14.384 4.218,22.604Zm118.639,0.973c0.541,-0.433 1.731,-1.947 1.731,-2.704c-1.947,-0 -3.894,-0.324 -5.84,-0.324c-1.407,-0 -2.38,1.189 -3.029,2.27l0.649,0.325c2.271,-0 5.624,0.433 6.489,0.433Zm-185.043,-0.865c0.541,-0.108 4.219,-0.432 4.759,-0.432l0.433,-0c0.324,-0 0.757,-0 0.757,-0.542c0.216,0.326 0.649,0.326 0.973,0.326c3.786,-0 8.977,-3.137 11.357,-5.841c3.136,-3.678 4.542,-8.978 6.056,-13.087c1.082,-3.029 2.056,-6.382 2.597,-9.519c0.432,-2.703 0.216,-5.624 0.865,-8.219l-0,-6.706c-0.109,-0.216 -0.217,-0.649 -0.217,-1.406l-1.297,-11.897c-0.109,-0.108 -0.217,-0.649 -0.325,-0.757c-0.973,-3.461 -2.271,-6.058 -4.326,-9.194l-0.217,-0.432c-3.569,-3.894 -8.219,-6.49 -13.735,-6.49l-1.515,-0c-1.298,-0 -2.379,0.108 -2.487,0.866l-1.623,18.062l-0,1.73c-0,4.327 -0.866,8.544 -1.081,12.871l-1.407,24.876c-0.323,4.867 -0.864,9.626 -0.864,14.493l-0,0.974l1.297,0.324Zm151.839,-0.324c1.081,-0 4.326,-0.433 5.516,-0.974l0,-9.302c-0.216,-0.648 -0.324,-1.189 -0.324,-1.729c0,-0.541 0.108,-1.191 0.108,-1.948c-0.325,-5.84 -0.217,-11.681 -0.433,-17.629c-0.216,-6.706 -1.73,-13.52 -1.73,-20.334c0,-0.541 0.432,-0.757 0.864,-0.757c0.217,-0 0.541,-0 0.541,0.324c4.003,7.355 6.273,15.575 8.978,23.686c0.541,1.515 0.865,1.081 0.973,2.705c0.649,0.108 3.785,0.215 4.543,0.324c0.216,-0 0.648,-0 0.973,-0.541l1.947,-5.624c1.189,-1.514 1.622,-4.219 2.163,-6.165c1.406,-4.759 3.678,-9.302 5.3,-13.952c0.54,-1.622 1.406,-6.273 2.92,-6.273c0.973,-0 0.973,2.92 0.973,3.785c0,0.433 0,1.19 -0.324,1.514l0,3.353c0,9.302 -0.758,18.711 -1.73,28.121c-0.433,4.867 -1.191,9.626 -1.191,14.601c0,1.191 0.109,2.055 0.541,2.921c1.622,0.324 2.272,0.433 3.678,0.433c1.622,-0 1.622,-0.974 1.622,-2.38l0,-3.785c0,-2.379 0.974,-13.412 1.081,-15.792l1.839,-32.771c0,-0.325 -0.108,-0.757 -0.108,-1.19c0,-2.38 0.541,-4.975 0.541,-7.68l0,-0.648l-0.433,-0.541c-0.432,0.108 -1.622,0.108 -2.703,0.108c-2.272,-0 -4.436,-0.541 -6.815,-0.541c-0.107,-0 -0.432,-0 -0.865,0.433c-3.245,9.085 -6.813,18.278 -9.193,27.688c0,1.406 -0.649,3.461 -1.73,3.461c-1.082,-0 -9.302,-20.766 -11.032,-24.443l-0.217,-0.433c-1.19,-2.379 -2.38,-4.976 -4.111,-7.031c-0.323,-0 -1.73,-0.108 -2.054,-0.108c-1.514,-0 -3.677,0.217 -3.677,0.433l0,10.492l0.216,0.541c0,3.136 0.217,6.489 0.217,9.085c0,0.324 -0.217,2.92 -0.217,3.245c0,7.246 0.54,12.87 0.54,18.819c0,3.786 0.65,13.627 1.082,21.416c0.325,1.297 -0.216,5.083 1.731,5.083Zm26.823,-21.632c0,6.706 -1.839,13.195 -1.839,19.901c0.65,-0 2.489,-1.623 2.921,-2.163c1.514,-13.088 3.136,-30.933 3.136,-44.454l0,-3.352c-0.108,0.973 -1.946,3.352 -1.946,5.624c0,8.004 -1.407,21.091 -2.38,22.064c0,0.866 0.108,1.623 0.108,2.38Zm-172.064,-7.679l1.406,-18.712c-0.108,-0.648 -0.108,-1.405 -0.108,-2.054c-0,-4.219 0.757,-8.329 0.757,-12.655c-0,-1.405 -0,-2.487 -0.325,-4.002c0.216,-0.648 0.866,-1.081 1.515,-1.081c4.651,-0 7.137,5.516 8.328,8.977c-0,0.432 0.865,1.946 0.865,2.055l1.297,6.273l-0,0.865c-0,1.19 0.434,2.163 0.434,3.678l-0,4.11c-0,2.379 0.541,5.516 0.541,5.84c-0,0.216 -0.217,2.271 -0.217,2.488l-1.19,8.111c-0,0.109 -0.216,0.758 -0.216,0.866c-2.163,6.598 -2.596,12.762 -9.735,15.791c-1.406,0.649 -2.162,1.19 -3.785,1.19l-0.757,-0c-0,-0.109 -0.216,-0.433 -0.216,-0.541c0.757,-7.031 0.866,-13.953 1.406,-21.199Zm0.649,14.926c-0,1.731 -0.217,3.461 -0.217,5.083c4.003,-0 2.272,-2.38 3.894,-3.244c3.677,-7.788 4.434,-17.197 4.434,-25.742l-0,-3.894c-1.298,-4.866 -0.648,-10.816 -5.515,-14.601c-0,6.382 -1.299,12.979 -1.299,19.576c-0,0.866 -0,1.731 0.109,2.597l-1.406,19.359l-0,0.866Zm2.92,-51.267c-0,0.108 -0.109,2.812 -0.217,3.894l0.217,3.136c1.298,0.649 1.947,1.515 3.029,2.488l0.323,0.649c3.138,5.084 3.461,11.14 3.461,16.981c-0,6.056 -0.54,12.438 -1.838,18.494c-0.757,1.298 -1.838,6.706 -2.271,7.464c3.678,-3.028 4.001,-8.87 5.408,-13.088l1.081,-6.814c-0,-0.108 0.109,-3.244 0.109,-4.434c-0.109,-4.219 -0.109,-8.111 -0.433,-12.222c-0.048,-0.758 -0.198,-1.515 -0.362,-2.272l-0.142,-0.649c-0.163,-0.757 -0.314,-1.514 -0.361,-2.271c-0.108,-0.107 -0.325,-0.216 -0.325,-0.324c-1.189,-3.461 -1.947,-7.572 -4.975,-10.167c-0.325,-0.108 -2.271,-0.865 -2.488,-1.189l-0.216,0.324Zm94.846,49.537l0.541,-0c3.028,-0 6.381,-0.758 9.193,-1.082c2.487,-0.325 2.379,-1.623 3.462,-3.678c-4.652,-0 -8.978,0.649 -13.413,0.974l-0.216,0.325c-0,0.864 -0.216,2.379 -0.216,2.811c-0,0.541 0.216,0.65 0.649,0.65Zm109.771,-0l0.54,-0c3.03,-0 6.382,-0.758 9.194,-1.082c2.488,-0.325 2.38,-1.623 3.461,-3.678c-4.651,-0 -8.977,0.649 -13.412,0.974l-0.216,0.325c-0,0.864 -0.216,2.379 -0.216,2.811c-0,0.541 0.216,0.65 0.649,0.65Zm-45.964,-3.354c0.865,-0 1.297,-3.244 1.297,-3.677c0,-0.541 -2.271,-0.541 -2.811,-0.541c-0.433,0.216 -2.921,3.027 -2.921,4.002c1.515,-0 2.921,0.216 4.435,0.216Zm-10.275,-10.058c0.756,1.514 1.622,6.922 3.894,8.652l0.324,-0.324c1.513,-1.406 1.406,-1.731 1.838,-3.353c0,-2.813 -6.814,-20.875 -7.462,-20.983l1.406,16.008Zm-64.132,7.139c0.054,-0.109 0.108,-0.19 0.148,-0.231c0.041,-0.04 0.068,-0.04 0.068,0.014c-0,0.108 -0.108,0.217 -0.216,0.217Zm109.772,-0c0.054,-0.109 0.107,-0.19 0.148,-0.231c0.04,-0.04 0.067,-0.04 0.067,0.014c-0,0.108 -0.107,0.217 -0.215,0.217Zm-98.631,-8.869c1.406,-5.733 4.218,-12.006 4.218,-17.847l2.487,-11.897c-0,-0.108 0.865,-0.757 0.865,-0.757c0.433,-0 0.866,0.432 1.082,0.757c-0,0.108 -0.108,0.433 -0.108,0.865c-0,0.541 0.108,1.19 0.433,1.405c0.648,5.409 1.839,10.492 2.703,15.792c-0.108,0.757 -0.216,1.407 -0.216,2.163c-0,5.084 2.92,9.519 2.92,10.924c-0,1.19 -3.245,1.298 -6.381,1.298l-3.569,-0c-1.839,-0 -3.678,1.081 -5.516,1.081c-0.866,-0 -1.082,-0.215 -1.082,-0.973c-0,-1.406 2.164,-0.865 2.164,-2.811Zm109.77,-0c1.406,-5.733 4.219,-12.006 4.219,-17.847l2.486,-11.897c-0,-0.108 0.867,-0.757 0.867,-0.757c0.432,-0 0.865,0.432 1.082,0.757c-0,0.108 -0.11,0.433 -0.11,0.865c-0,0.541 0.11,1.19 0.433,1.405c0.649,5.409 1.839,10.492 2.705,15.792c-0.108,0.757 -0.217,1.407 -0.217,2.163c-0,5.084 2.921,9.519 2.921,10.924c-0,1.19 -3.244,1.298 -6.382,1.298l-3.568,-0c-1.839,-0 -3.678,1.081 -5.517,1.081c-0.865,-0 -1.082,-0.215 -1.082,-0.973c-0,-1.406 2.163,-0.865 2.163,-2.811Zm-108.256,1.297c1.189,-0 3.352,-0.433 4.218,-0.541l-0,-2.595c-0.216,-0.325 -1.082,-8.761 -1.298,-8.761c-1.298,3.245 -2.92,10.059 -2.92,11.897Zm109.771,-0c1.189,-0 3.353,-0.433 4.218,-0.541l-0,-2.595c-0.217,-0.325 -1.08,-8.761 -1.297,-8.761c-1.299,3.245 -2.921,10.059 -2.921,11.897Zm-105.337,-16.116c-0,4.651 1.73,10.167 1.73,15.359l3.786,-0c-0.108,-2.163 -0.541,-4.218 -0.757,-6.273c-0.541,-5.841 -1.73,-11.681 -2.812,-17.522c-0,-0.108 -0.109,-0.865 -0.217,-0.973c-0.323,0.216 -0.432,0.648 -0.432,1.406l-1.514,6.706l0.216,0.541l-0,0.756Zm109.771,-0c-0,4.651 1.732,10.167 1.732,15.359l3.784,-0c-0.107,-2.163 -0.54,-4.218 -0.757,-6.273c-0.542,-5.841 -1.731,-11.681 -2.811,-17.522c-0,-0.108 -0.11,-0.865 -0.216,-0.973c-0.326,0.216 -0.434,0.648 -0.434,1.406l-1.514,6.706l0.216,0.541l-0,0.756Zm-52.128,5.083l0.324,-0.216c0.648,-4.001 2.703,-8.003 3.785,-11.897c-0.108,-0.54 1.947,-5.625 2.704,-7.787c0.433,-1.406 1.515,-3.245 1.515,-4.76c0,-0.215 -0.109,-0.324 -0.109,-0.54c-0.973,1.081 -3.677,3.028 -4.326,4.218c-0.541,0.974 -0.649,2.055 -0.974,3.029c-1.189,4.109 -2.919,7.462 -4.11,13.411c-0.432,-0 -0.757,0.648 -0.757,0.541c0,0.324 1.948,4.001 1.948,4.001Zm-114.746,-24.983l0.433,-0.974l7.895,0.108c4.543,0.216 6.381,6.382 6.381,8.004c0,6.814 -5.191,12.006 -12.113,12.006c-2.271,-0 -2.271,-0.325 -2.271,-3.245l0,-2.055c0,-4.219 -0.541,-9.41 -0.541,-11.574c0.108,-0.648 0.108,-2.162 0.216,-2.27Zm2.271,17.197c5.084,-0 5.3,-1.839 5.3,-6.274c0,-2.379 -1.947,-4.109 -4.11,-4.218l-0.433,-0c-0.54,-0 -1.189,0.109 -1.298,0.649c0.109,3.245 -0.108,6.598 0.541,9.843Zm7.031,-6.922c0,0.757 -0.108,4.434 -0.108,5.191c1.838,-0.325 3.785,-5.841 3.785,-7.355c0,-6.272 -4.11,-7.354 -10.059,-7.354c-0.649,-0 -1.19,0.108 -1.19,0.541l-0.108,3.569c3.569,0.108 7.68,0.756 7.68,5.408Z" style="fill:#73942b;fill-rule:nonzero;"/><path d="M181.101,179.889c0.284,0.002 0.579,0.076 0.885,0.221c0.613,0.292 0.999,0.75 1.16,1.372c0.041,0.161 0.136,0.392 0.287,0.694c0.15,0.301 0.231,0.517 0.241,0.647c0.01,0.132 -0.016,0.397 -0.075,0.798c-0.177,0.548 -0.441,0.823 -0.792,0.827l-0.005,-0c-0.126,0 -0.262,-0.034 -0.409,-0.103c-0.362,-0.14 -0.563,-0.446 -0.603,-0.919c-0.04,-0.471 0.1,-0.849 0.422,-1.131c0.201,-0.159 0.296,-0.291 0.287,-0.391c-0.011,-0.1 -0.137,-0.291 -0.377,-0.573c-0.249,-0.296 -0.544,-0.445 -0.884,-0.448l-0.006,0c-0.235,-0 -0.491,0.069 -0.768,0.207c-0.684,0.362 -1.156,0.869 -1.417,1.522c-0.261,0.655 -0.391,1.683 -0.391,3.09c0,1.185 0.039,1.779 0.12,1.779c0.101,0 0.231,0.174 0.392,0.526c0.16,0.351 0.221,0.6 0.18,0.739c-0.059,0.141 -0.22,0.276 -0.482,0.407c-0.257,0.128 -0.484,0.194 -0.682,0.196l-0.01,0c-0.202,0 -0.428,-0.066 -0.679,-0.196c-0.251,-0.131 -0.377,-0.246 -0.377,-0.346c0,-0.061 -0.02,-0.156 -0.06,-0.287c-0.04,-0.13 -0.071,-0.241 -0.091,-0.331c-0.019,-0.09 0,-0.176 0.061,-0.256c0.06,-0.08 0.161,-0.132 0.302,-0.151l0.391,-0.15c0,-3.723 -0.049,-5.68 -0.15,-5.876l-0.001,-0.003c-0.081,0 -0.312,0.156 -0.692,0.468c-0.38,0.309 -0.649,0.466 -0.81,0.468l-0.004,0c-0.222,0 -0.412,-0.122 -0.573,-0.363c-0.161,-0.24 -0.242,-0.531 -0.242,-0.874c0,-0.362 0.152,-0.634 0.453,-0.813c0.16,-0.101 0.357,-0.175 0.588,-0.228c0.144,-0.03 0.275,-0.045 0.392,-0.045l0.008,0c0.067,0.001 0.13,0.006 0.188,0.016c0.16,0.029 0.24,0.087 0.24,0.166c0,0.064 0.063,0.095 0.189,0.094l0.009,0c0.074,-0.001 0.169,-0.012 0.284,-0.034c0.086,-0.015 0.168,-0.022 0.248,-0.022l0.007,-0c0.235,0.001 0.441,0.069 0.62,0.203c0.156,0.104 0.269,0.156 0.343,0.156l0.004,-0c0.011,-0.001 0.02,-0.002 0.029,-0.005c0.071,-0.019 0.246,-0.122 0.528,-0.301c0.301,-0.201 0.603,-0.381 0.904,-0.542c0.257,-0.138 0.525,-0.208 0.804,-0.208l0.014,0Zm210.186,0.753c0.073,-0.001 0.168,-0.012 0.283,-0.034c0.342,-0.06 0.634,0 0.875,0.181c0.155,0.104 0.27,0.156 0.343,0.156l0.004,-0c0.011,-0.001 0.02,-0.002 0.029,-0.005c0.071,-0.019 0.245,-0.122 0.528,-0.301c0.301,-0.201 0.602,-0.381 0.904,-0.542c0.253,-0.136 0.517,-0.206 0.791,-0.208l0.013,-0l0.014,0c0.284,0.002 0.579,0.076 0.885,0.221c0.613,0.292 0.999,0.75 1.16,1.372c0.04,0.161 0.135,0.392 0.287,0.694c0.152,0.301 0.231,0.517 0.242,0.647c0.008,0.132 -0.016,0.397 -0.077,0.798c-0.177,0.548 -0.44,0.823 -0.791,0.827l-0.005,-0c-0.125,0 -0.262,-0.034 -0.409,-0.103c-0.362,-0.14 -0.562,-0.446 -0.602,-0.919c-0.042,-0.471 0.1,-0.849 0.421,-1.131c0.2,-0.159 0.297,-0.291 0.287,-0.391c-0.011,-0.1 -0.135,-0.291 -0.377,-0.573c-0.248,-0.296 -0.543,-0.445 -0.883,-0.448l-0.007,0c-0.234,-0 -0.49,0.069 -0.767,0.207c-0.684,0.362 -1.157,0.869 -1.416,1.522c-0.262,0.655 -0.394,1.683 -0.394,3.09c-0,1.185 0.04,1.779 0.121,1.779c0.101,0 0.231,0.174 0.392,0.526c0.161,0.351 0.221,0.6 0.181,0.739c-0.06,0.141 -0.221,0.276 -0.483,0.407c-0.257,0.128 -0.484,0.194 -0.683,0.196l-0.009,0c-0.201,0 -0.428,-0.066 -0.679,-0.196c-0.251,-0.131 -0.375,-0.246 -0.375,-0.346c-0,-0.061 -0.022,-0.156 -0.061,-0.287c-0.042,-0.13 -0.071,-0.241 -0.092,-0.331c-0.019,-0.09 -0,-0.176 0.061,-0.256c0.061,-0.08 0.16,-0.132 0.301,-0.151l0.393,-0.15c-0,-3.723 -0.05,-5.68 -0.15,-5.876l-0.001,-0.003c-0.081,0 -0.312,0.156 -0.694,0.468c-0.378,0.309 -0.649,0.466 -0.81,0.468l-0.004,0c-0.221,0 -0.412,-0.122 -0.571,-0.363c-0.163,-0.24 -0.242,-0.531 -0.242,-0.874c-0,-0.362 0.15,-0.634 0.452,-0.813c0.16,-0.101 0.356,-0.175 0.588,-0.228c0.144,-0.03 0.274,-0.045 0.391,-0.045l0.009,0c0.067,0.001 0.129,0.006 0.187,0.016c0.161,0.029 0.243,0.087 0.243,0.166c-0,0.064 0.062,0.095 0.187,0.094l0.01,0Zm-38.317,8.513c-0.419,-0.001 -0.864,-0.107 -1.335,-0.319c-0.161,-0.079 -0.366,-0.221 -0.617,-0.422c-0.252,-0.201 -0.499,-0.302 -0.739,-0.302c-0.201,0 -0.373,-0.049 -0.512,-0.15c-0.242,-0.14 -0.363,-0.531 -0.363,-1.176c-0,-0.641 0.121,-1.033 0.363,-1.175c0.181,-0.12 0.356,-0.16 0.528,-0.12c0.169,0.04 0.274,0.141 0.316,0.302c0.08,0.2 0.21,0.33 0.392,0.391c0.18,0.06 0.32,0.212 0.422,0.452c0.1,0.241 0.12,0.493 0.059,0.753c-0.04,0.181 -0.035,0.306 0.016,0.378c0.05,0.07 0.206,0.155 0.467,0.256c0.332,0.139 0.634,0.208 0.906,0.208l0.009,0c0.515,-0.002 0.923,-0.252 1.225,-0.75c0.22,-0.383 0.275,-0.769 0.166,-1.161c-0.111,-0.392 -0.358,-0.678 -0.739,-0.86c-0.381,-0.2 -0.944,-0.552 -1.688,-1.054c-0.783,-0.542 -1.176,-1.296 -1.176,-2.261c-0,-0.542 0.1,-0.954 0.302,-1.235c0.2,-0.282 0.533,-0.502 0.995,-0.663c0.171,-0.053 0.411,-0.079 0.721,-0.08l0.022,0c0.157,0 0.331,0.007 0.522,0.02c0.584,0.04 0.944,0.11 1.086,0.211c0.065,0.066 0.182,0.099 0.35,0.098l0.007,0c0.138,-0.001 0.31,-0.024 0.517,-0.069c0.126,-0.031 0.241,-0.047 0.346,-0.047l0.006,-0c0.428,0.001 0.682,0.264 0.764,0.786c0.1,0.654 -0.092,1.1 -0.574,1.341c-0.137,0.108 -0.286,0.162 -0.448,0.163l-0.008,-0c-0.17,-0.001 -0.354,-0.06 -0.552,-0.178c-0.394,-0.231 -0.569,-0.488 -0.529,-0.768c-0.04,-0.242 -0.095,-0.393 -0.166,-0.451c-0.069,-0.062 -0.266,-0.112 -0.587,-0.152c-0.624,-0.081 -1.105,0.035 -1.448,0.347c-0.341,0.311 -0.451,0.728 -0.33,1.25c0.061,0.222 0.33,0.522 0.813,0.903c0.482,0.383 0.965,0.685 1.446,0.907c0.282,0.099 0.584,0.372 0.906,0.813c0.32,0.381 0.476,0.894 0.467,1.536c-0.01,0.644 -0.197,1.146 -0.559,1.508c-0.523,0.511 -1.108,0.767 -1.756,0.77l-0.013,-0Zm-89.455,-9.403c0.651,0.005 1.267,0.28 1.848,0.826c0.421,0.422 0.677,0.81 0.766,1.16c0.092,0.353 0.127,1.181 0.106,2.488c0,1.667 0.08,2.582 0.243,2.742c0.359,0.302 0.356,0.669 -0.018,1.1c-0.368,0.43 -0.731,0.644 -1.088,0.647l-0.009,0c-0.464,0 -0.766,-0.204 -0.906,-0.616c-0.14,-0.412 -0.03,-0.8 0.331,-1.161c0.181,-0.181 0.287,-0.387 0.318,-0.618c0.03,-0.231 0.064,-0.968 0.104,-2.215c0.021,-1.165 0.016,-1.879 -0.013,-2.14c-0.031,-0.262 -0.118,-0.463 -0.257,-0.602c-0.439,-0.438 -0.927,-0.66 -1.466,-0.664l-0.013,0c-0.28,0 -0.712,0.216 -1.295,0.648c-0.582,0.433 -1.003,0.858 -1.265,1.281c-0.161,0.261 -0.211,1.035 -0.151,2.319c0.08,1.308 0.222,2.061 0.422,2.262c0.281,0.262 0.331,0.598 0.15,1.01c-0.181,0.411 -0.461,0.628 -0.844,0.647c-0.012,0.001 -0.025,0.001 -0.037,0.001l-0.009,0c-0.378,0.001 -0.664,-0.246 -0.857,-0.739c-0.201,-0.512 -0.161,-0.898 0.119,-1.16c0.142,-0.182 0.192,-1.035 0.152,-2.562c-0.02,-1.105 -0.055,-1.778 -0.107,-2.019c-0.048,-0.242 -0.156,-0.412 -0.315,-0.513c-0.243,-0.139 -0.373,-0.441 -0.391,-0.903c-0.021,-0.343 -0.011,-0.554 0.029,-0.634c0.04,-0.079 0.201,-0.171 0.483,-0.271c0.189,-0.063 0.363,-0.094 0.522,-0.094l0.007,0c0.142,0.002 0.272,0.028 0.388,0.08c0.253,0.108 0.378,0.306 0.378,0.587c0,0.222 0.061,0.343 0.18,0.361l0.003,0c0.061,-0.001 0.099,-0.051 0.118,-0.15c0,-0.101 0.273,-0.312 0.815,-0.634c0.536,-0.31 1.051,-0.465 1.545,-0.464l0.014,0Zm-97.305,-4.162c0.23,0.002 0.42,0.099 0.57,0.288c0.141,0.14 0.231,0.492 0.271,1.055c0.04,0.562 0.011,0.932 -0.09,1.115c-0.021,0.039 -0.05,0.541 -0.09,1.506c-0.04,0.964 -0.065,1.848 -0.076,2.652c-0.01,0.806 -0.005,1.276 0.016,1.416l0.002,-0c0.102,-0.002 0.342,-0.116 0.721,-0.346c0.381,-0.23 0.573,-0.376 0.573,-0.436c-0,-0.101 0.059,-0.151 0.181,-0.151c0.181,-0 0.351,-0.111 0.512,-0.333c0.06,-0.079 0.306,-0.28 0.739,-0.602c0.431,-0.32 0.828,-0.642 1.19,-0.964c0.362,-0.32 0.532,-0.573 0.512,-0.753c0.06,-0.282 0.221,-0.553 0.483,-0.814c0.242,-0.243 0.451,-0.364 0.624,-0.364l0.005,-0c0.011,-0 0.023,0 0.034,0.002c0.2,0.04 0.391,0.216 0.572,0.529c0.181,0.311 0.272,0.616 0.272,0.919c-0,0.38 -0.111,0.667 -0.332,0.858c-0.221,0.19 -0.583,0.336 -1.086,0.436c-0.341,0.061 -0.628,0.151 -0.858,0.272c-0.231,0.12 -0.462,0.286 -0.694,0.497c-0.231,0.212 -0.457,0.378 -0.678,0.497c-0.12,0.061 -0.05,0.347 0.211,0.859c0.261,0.512 0.603,1.061 1.025,1.643c0.342,0.483 0.643,0.724 0.905,0.724c0.28,-0 0.546,0.14 0.798,0.423c0.251,0.28 0.377,0.581 0.377,0.903c-0,0.502 -0.211,0.844 -0.633,1.025c-0.162,0.069 -0.329,0.104 -0.502,0.105l-0.011,0c-0.276,0 -0.567,-0.085 -0.874,-0.255c-0.503,-0.322 -0.683,-0.764 -0.542,-1.327c0.08,-0.221 0.039,-0.442 -0.121,-0.663c-0.301,-0.543 -0.743,-1.316 -1.326,-2.322c-0.08,-0.159 -0.15,-0.264 -0.211,-0.315c-0.033,-0.028 -0.069,-0.042 -0.108,-0.042l-0.003,-0c-0.031,-0 -0.064,0.009 -0.099,0.026c-0.081,0.04 -0.192,0.13 -0.332,0.273c-0.08,0.079 -0.171,0.139 -0.272,0.179c-0.1,0.04 -0.186,0.08 -0.256,0.121c-0.07,0.041 -0.115,0.112 -0.135,0.21c-0.021,0.102 -0.166,0.243 -0.437,0.422c-0.272,0.182 -0.387,0.372 -0.348,0.574c-0.059,0.884 0.031,1.446 0.272,1.688c0.201,0.2 0.241,0.513 0.121,0.933c-0.061,0.221 -0.262,0.398 -0.603,0.528c-0.208,0.08 -0.413,0.12 -0.613,0.122l-0.008,-0c-0.126,-0 -0.251,-0.016 -0.374,-0.046c-0.18,-0.041 -0.306,-0.1 -0.376,-0.181c-0.071,-0.081 -0.127,-0.231 -0.166,-0.453c-0.081,-0.38 -0.081,-0.723 -0,-1.024c0.08,-0.302 0.201,-0.452 0.362,-0.452c0.12,-0 0.206,-0.141 0.256,-0.423c0.05,-0.28 0.105,-0.954 0.165,-2.019c0.081,-1.185 0.121,-2.571 0.121,-4.159c-0,-0.845 -0.015,-1.36 -0.046,-1.553c-0.029,-0.19 -0.145,-0.385 -0.346,-0.586c-0.301,-0.323 -0.452,-0.664 -0.452,-1.026c-0,-0.221 0.031,-0.372 0.09,-0.451c0.061,-0.082 0.146,-0.141 0.257,-0.182c0.109,-0.04 0.195,-0.12 0.256,-0.241c0.12,-0.2 0.306,-0.306 0.558,-0.316c0.014,-0.001 0.027,-0.001 0.041,-0.001l0.006,-0Zm139.328,8.032c0.101,-0 0.34,-0.114 0.722,-0.346c0.382,-0.23 0.573,-0.376 0.573,-0.436c0,-0.101 0.059,-0.151 0.181,-0.151c0.181,-0 0.352,-0.111 0.511,-0.333c0.061,-0.079 0.307,-0.28 0.74,-0.602c0.431,-0.32 0.83,-0.642 1.189,-0.964c0.364,-0.32 0.534,-0.573 0.513,-0.753c0.06,-0.282 0.221,-0.553 0.483,-0.814c0.262,-0.261 0.484,-0.381 0.663,-0.362c0.201,0.04 0.392,0.216 0.571,0.529c0.182,0.311 0.274,0.616 0.274,0.919c0,0.38 -0.11,0.667 -0.332,0.858c-0.222,0.19 -0.584,0.336 -1.086,0.436c-0.341,0.061 -0.628,0.151 -0.858,0.272c-0.231,0.12 -0.463,0.286 -0.695,0.497c-0.23,0.212 -0.457,0.378 -0.677,0.497c-0.12,0.061 -0.05,0.347 0.209,0.859c0.264,0.512 0.605,1.061 1.026,1.643c0.343,0.483 0.643,0.724 0.905,0.724c0.28,-0 0.547,0.14 0.798,0.423c0.251,0.28 0.378,0.581 0.378,0.903c0,0.502 -0.212,0.844 -0.634,1.025c-0.423,0.18 -0.883,0.13 -1.386,-0.15c-0.503,-0.322 -0.683,-0.764 -0.543,-1.327c0.079,-0.221 0.04,-0.442 -0.121,-0.663c-0.301,-0.543 -0.743,-1.316 -1.326,-2.322c-0.08,-0.159 -0.149,-0.264 -0.212,-0.315c-0.058,-0.05 -0.13,-0.055 -0.209,-0.016c-0.082,0.04 -0.192,0.13 -0.331,0.273c-0.081,0.079 -0.173,0.139 -0.273,0.179c-0.101,0.04 -0.186,0.08 -0.256,0.121c-0.069,0.041 -0.114,0.112 -0.136,0.21c-0.02,0.102 -0.166,0.243 -0.435,0.422c-0.273,0.182 -0.389,0.372 -0.347,0.574c-0.061,0.884 0.029,1.446 0.27,1.688c0.201,0.2 0.243,0.513 0.122,0.933c-0.061,0.221 -0.262,0.398 -0.603,0.528c-0.343,0.132 -0.674,0.156 -0.994,0.076c-0.182,-0.041 -0.309,-0.1 -0.378,-0.181c-0.07,-0.081 -0.126,-0.231 -0.166,-0.453c-0.079,-0.38 -0.079,-0.723 0,-1.024c0.08,-0.302 0.201,-0.452 0.362,-0.452c0.119,-0 0.206,-0.141 0.256,-0.423c0.051,-0.28 0.106,-0.954 0.165,-2.019c0.081,-1.185 0.121,-2.571 0.121,-4.159c0,-0.845 -0.013,-1.36 -0.045,-1.553c-0.029,-0.19 -0.145,-0.385 -0.346,-0.586c-0.301,-0.323 -0.453,-0.664 -0.453,-1.026c0,-0.221 0.03,-0.372 0.091,-0.451c0.061,-0.082 0.145,-0.141 0.256,-0.182c0.109,-0.04 0.195,-0.12 0.256,-0.241c0.12,-0.2 0.307,-0.306 0.558,-0.316c0.251,-0.011 0.457,0.086 0.618,0.287c0.14,0.14 0.23,0.492 0.27,1.055c0.041,0.562 0.01,0.932 -0.09,1.115c-0.021,0.039 -0.048,0.541 -0.09,1.506c-0.039,0.964 -0.066,1.848 -0.077,2.652c-0.009,0.806 -0.003,1.276 0.018,1.416Zm12.221,4.863c-0.055,-0.001 -0.12,-0.014 -0.196,-0.039c-0.182,-0.06 -0.33,-0.161 -0.453,-0.302c-0.141,-0.181 -0.21,-0.511 -0.21,-0.995c-0,-0.481 -0.291,-1.316 -0.874,-2.502c-0.584,-1.184 -1.086,-1.948 -1.508,-2.291c-0.542,-0.462 -0.652,-1.014 -0.331,-1.656c0.14,-0.262 0.347,-0.441 0.618,-0.542c0.269,-0.101 0.497,-0.071 0.679,0.09c0.2,0.161 0.349,0.412 0.452,0.753c0.098,0.341 0.13,0.653 0.09,0.935c-0.041,0.341 0.24,1.105 0.842,2.29c0.463,0.905 0.811,1.483 1.041,1.734c0.144,0.157 0.279,0.235 0.404,0.235l0.005,-0c0.073,-0.002 0.143,-0.03 0.209,-0.085c0.18,-0.15 0.413,-0.578 0.693,-1.281c0.121,-0.262 0.277,-0.634 0.468,-1.115c0.19,-0.483 0.305,-0.764 0.345,-0.845c0.143,-0.32 0.211,-0.522 0.211,-0.603c-0,-0.079 -0.058,-0.161 -0.179,-0.24c-0.182,-0.14 -0.272,-0.383 -0.272,-0.723c-0,-0.342 0.101,-0.583 0.301,-0.724c0.138,-0.103 0.347,-0.155 0.625,-0.155l0.016,-0c0.041,0 0.083,0.001 0.127,0.004c0.352,0.021 0.598,0.1 0.74,0.241c0.12,0.121 0.16,0.422 0.12,0.905c-0.02,0.341 0.137,0.849 0.467,1.522c0.331,0.673 0.507,1.121 0.528,1.34c0.019,0.222 0.08,0.412 0.181,0.574c0.099,0.16 0.16,0.311 0.179,0.451c-0,0.161 0.08,0.322 0.242,0.483c0.04,0.04 0.075,0.066 0.105,0.074c0.01,0.003 0.02,0.005 0.029,0.005l0.002,0c0.017,-0 0.032,-0.007 0.045,-0.018c0.021,-0.021 0.041,-0.056 0.061,-0.106c0.018,-0.051 0.039,-0.127 0.06,-0.226c0.2,-0.884 0.672,-1.93 1.416,-3.134c0.582,-0.925 0.935,-1.778 1.056,-2.563c0.08,-0.463 0.19,-0.693 0.329,-0.693l0.01,-0c0.219,0.002 0.462,0.071 0.729,0.212c0.273,0.14 0.407,0.26 0.407,0.359c-0,0.143 0.05,0.212 0.153,0.212c0.098,-0 0.148,0.2 0.148,0.603c-0,0.282 -0.029,0.464 -0.09,0.543c-0.058,0.08 -0.24,0.18 -0.542,0.301c-0.282,0.101 -0.511,0.247 -0.694,0.437c-0.18,0.192 -0.441,0.589 -0.782,1.191c-0.242,0.422 -0.412,0.729 -0.513,0.919c-0.1,0.191 -0.2,0.412 -0.301,0.663c-0.1,0.251 -0.19,0.468 -0.272,0.648c-0.14,0.182 -0.222,0.639 -0.24,1.371c-0.021,0.734 -0.121,1.171 -0.302,1.311c-0.185,0.216 -0.394,0.325 -0.626,0.328l-0.007,-0c-0.068,0 -0.139,-0.009 -0.212,-0.027c-0.681,-0.159 -1.035,-0.692 -1.053,-1.596c-0.02,-0.563 -0.193,-1.276 -0.513,-2.14c-0.321,-0.864 -0.584,-1.297 -0.784,-1.297c-0.12,0.121 -0.271,0.383 -0.451,0.784c-0.182,0.402 -0.388,0.88 -0.62,1.432c-0.23,0.553 -0.425,0.98 -0.587,1.281c-0.502,0.965 -0.833,1.446 -0.996,1.446c-0.179,-0 -0.3,0.05 -0.359,0.151c-0.035,0.045 -0.088,0.069 -0.16,0.07l-0.006,-0Zm-99.442,-7.133c-0.251,0 -0.492,-0.112 -0.722,-0.336c-0.442,-0.433 -0.452,-0.89 -0.03,-1.372c0.16,-0.201 0.427,-0.317 0.798,-0.347c0.373,-0.03 0.648,0.045 0.83,0.226c0.15,0.167 0.499,0.252 1.049,0.252l0.015,0c0.11,-0 0.227,-0.004 0.352,-0.011l0.15,-0.874c0.081,-0.402 0.106,-0.677 0.075,-0.829c-0.029,-0.15 -0.125,-0.347 -0.285,-0.587c-0.242,-0.363 -0.347,-0.632 -0.317,-0.815c0.03,-0.18 0.196,-0.351 0.498,-0.512c0.321,-0.14 0.507,-0.212 0.558,-0.212l0.002,0.001c0.049,0.001 0.206,0.104 0.464,0.301c0.261,0.202 0.402,0.388 0.422,0.559c0.021,0.17 -0.07,0.577 -0.271,1.221c-0.201,0.602 -0.302,1.054 -0.302,1.356c0,0.16 0.035,0.267 0.106,0.316c0.07,0.05 0.246,0.075 0.527,0.075l0.009,0c0.38,-0.001 0.769,-0.11 1.167,-0.33c0.257,-0.158 0.487,-0.238 0.693,-0.238l0.006,0c0.339,0.002 0.609,0.221 0.808,0.657c0.14,0.344 0.181,0.619 0.121,0.831c-0.06,0.21 -0.262,0.437 -0.603,0.678c-0.188,0.141 -0.374,0.212 -0.556,0.212l-0.005,0c-0.049,0 -0.098,-0.005 -0.147,-0.016c-0.231,-0.05 -0.397,-0.196 -0.498,-0.437c-0.101,-0.242 -0.352,-0.352 -0.753,-0.332c-0.442,0.04 -0.693,0.09 -0.754,0.15c-0.1,0.101 -0.151,0.941 -0.151,2.518c0,1.577 0.041,2.536 0.122,2.878c0.16,0.763 0.672,1.145 1.536,1.145l0.018,0c0.372,-0 0.617,-0.025 0.736,-0.076c0.12,-0.05 0.251,-0.206 0.391,-0.467c0.221,-0.38 0.301,-0.783 0.242,-1.205c-0.141,-0.944 0.03,-1.477 0.512,-1.598c0.057,-0.015 0.119,-0.022 0.186,-0.022l0.006,-0c0.189,0.001 0.417,0.064 0.681,0.188c0.363,0.172 0.553,0.346 0.574,0.528c0.02,0.341 -0.016,0.623 -0.106,0.844c-0.09,0.221 -0.241,0.457 -0.452,0.708c-0.211,0.253 -0.366,0.488 -0.467,0.708c-0.321,0.663 -0.598,1.061 -0.829,1.191c-0.226,0.129 -0.712,0.194 -1.456,0.196l-0.036,0c-0.644,0 -1.045,-0.025 -1.205,-0.075c-0.161,-0.05 -0.372,-0.216 -0.634,-0.499c-0.301,-0.32 -0.532,-0.793 -0.692,-1.416c-0.102,-0.441 -0.161,-1.39 -0.181,-2.848c-0.021,-1.456 0.009,-2.306 0.09,-2.547c0.04,-0.1 0.025,-0.166 -0.045,-0.196c-0.068,-0.028 -0.245,-0.043 -0.53,-0.043l-0.028,-0.001c-0.442,0 -0.763,0.071 -0.965,0.21c-0.248,0.193 -0.488,0.289 -0.719,0.292l-0.005,-0Zm125.742,6.128c0.371,-0 0.616,-0.025 0.735,-0.076c0.119,-0.05 0.251,-0.206 0.391,-0.467c0.222,-0.38 0.301,-0.783 0.241,-1.205c-0.141,-0.944 0.031,-1.477 0.512,-1.598c0.222,-0.059 0.513,-0.003 0.874,0.166c0.363,0.172 0.553,0.346 0.574,0.528c0.019,0.341 -0.016,0.623 -0.106,0.844c-0.09,0.221 -0.241,0.457 -0.452,0.708c-0.211,0.253 -0.367,0.488 -0.468,0.708c-0.321,0.663 -0.596,1.061 -0.829,1.191c-0.226,0.129 -0.71,0.194 -1.454,0.196l-0.036,0c-0.645,0 -1.046,-0.025 -1.207,-0.075c-0.161,-0.05 -0.372,-0.216 -0.632,-0.499c-0.302,-0.32 -0.533,-0.793 -0.694,-1.416c-0.101,-0.441 -0.161,-1.39 -0.18,-2.848c-0.021,-1.456 0.01,-2.306 0.09,-2.547c0.039,-0.1 0.025,-0.166 -0.045,-0.196c-0.071,-0.029 -0.257,-0.044 -0.558,-0.044c-0.441,0 -0.763,0.071 -0.965,0.21c-0.249,0.193 -0.489,0.289 -0.719,0.292l-0.006,-0c-0.252,0 -0.492,-0.112 -0.722,-0.336c-0.441,-0.433 -0.452,-0.89 -0.029,-1.372c0.161,-0.201 0.426,-0.317 0.798,-0.347c0.372,-0.03 0.647,0.045 0.829,0.226c0.15,0.167 0.499,0.252 1.049,0.252l0.016,0c0.109,-0 0.227,-0.004 0.352,-0.011l0.15,-0.874c0.079,-0.402 0.106,-0.677 0.076,-0.829c-0.031,-0.15 -0.126,-0.347 -0.287,-0.587c-0.241,-0.363 -0.346,-0.632 -0.315,-0.815c0.029,-0.18 0.195,-0.351 0.497,-0.512c0.32,-0.14 0.507,-0.212 0.558,-0.212l0.001,0.001c0.051,0.001 0.207,0.104 0.465,0.301c0.26,0.202 0.403,0.388 0.421,0.559c0.021,0.17 -0.069,0.577 -0.269,1.221c-0.201,0.602 -0.302,1.054 -0.302,1.356c0,0.16 0.035,0.267 0.105,0.316c0.07,0.05 0.245,0.075 0.527,0.075l0.009,0c0.378,-0.001 0.768,-0.11 1.167,-0.33c0.256,-0.158 0.487,-0.238 0.692,-0.238l0.006,0c0.34,0.002 0.609,0.221 0.808,0.657c0.142,0.344 0.182,0.619 0.122,0.831c-0.061,0.21 -0.262,0.437 -0.603,0.678c-0.188,0.141 -0.375,0.212 -0.556,0.212l-0.006,0c-0.049,0 -0.098,-0.005 -0.146,-0.016c-0.232,-0.05 -0.396,-0.196 -0.497,-0.437c-0.103,-0.242 -0.354,-0.352 -0.755,-0.332c-0.441,0.04 -0.692,0.09 -0.754,0.15c-0.099,0.101 -0.15,0.941 -0.15,2.518c0,1.577 0.04,2.536 0.121,2.878c0.161,0.763 0.672,1.145 1.538,1.145l0.018,0Zm-153.858,-8.197c0.122,0.002 0.397,0.132 0.827,0.391c0.432,0.262 0.698,0.392 0.798,0.392c0.161,-0 0.286,0.147 0.377,0.438c0.091,0.291 0.095,0.577 0.015,0.859c-0.1,0.381 -0.151,1.205 -0.151,2.471c-0,1.265 0.06,1.969 0.182,2.11c0.1,0.161 0.401,0.28 0.903,0.361c0.844,0.12 1.135,0.492 0.874,1.116c-0.101,0.201 -0.296,0.391 -0.587,0.573c-0.288,0.176 -0.55,0.267 -0.788,0.27l-0.011,-0c-0.241,-0 -0.502,-0.145 -0.784,-0.436c-0.281,-0.291 -0.421,-0.558 -0.421,-0.798c-0,-0.262 -0.036,-0.508 -0.106,-0.74c-0.071,-0.228 -0.145,-0.344 -0.224,-0.346l-0.002,-0c-0.101,-0 -0.151,0.061 -0.151,0.18c-0.141,0.463 -0.477,0.964 -1.01,1.508c-0.528,0.537 -1.09,0.81 -1.689,0.814l-0.014,-0c-0.341,-0 -0.582,-0.031 -0.722,-0.092c-0.141,-0.058 -0.313,-0.22 -0.513,-0.481c-0.764,-0.885 -1.181,-1.985 -1.251,-3.3c-0.071,-1.317 0.235,-2.457 0.919,-3.422c0.603,-0.863 1.165,-1.427 1.688,-1.688c0.221,-0.121 0.833,-0.18 1.838,-0.18l0.003,-0Zm62.865,-0c0.122,0.002 0.399,0.132 0.828,0.391c0.431,0.262 0.697,0.392 0.796,0.392c0.163,-0 0.288,0.147 0.378,0.438c0.09,0.291 0.095,0.577 0.016,0.859c-0.101,0.381 -0.151,1.205 -0.151,2.471c0,1.265 0.059,1.969 0.18,2.11c0.101,0.161 0.401,0.28 0.903,0.361c0.846,0.12 1.136,0.492 0.877,1.116c-0.102,0.201 -0.297,0.391 -0.588,0.573c-0.286,0.176 -0.55,0.267 -0.789,0.27l-0.011,-0c-0.24,-0 -0.503,-0.145 -0.783,-0.436c-0.281,-0.291 -0.422,-0.558 -0.422,-0.798c0,-0.262 -0.036,-0.508 -0.105,-0.74c-0.072,-0.23 -0.146,-0.346 -0.226,-0.346c-0.103,-0 -0.151,0.061 -0.151,0.18c-0.142,0.463 -0.478,0.964 -1.012,1.508c-0.527,0.537 -1.088,0.81 -1.687,0.814l-0.014,-0c-0.342,-0 -0.584,-0.031 -0.722,-0.092c-0.142,-0.058 -0.314,-0.22 -0.512,-0.481c-0.766,-0.885 -1.182,-1.985 -1.252,-3.3c-0.071,-1.317 0.235,-2.457 0.919,-3.422c0.602,-0.863 1.165,-1.427 1.686,-1.688c0.219,-0.119 0.815,-0.178 1.792,-0.18l0.047,-0l0.003,-0Zm130.219,-0c0.121,0.002 0.397,0.132 0.825,0.391c0.433,0.262 0.698,0.392 0.8,0.392c0.159,-0 0.285,0.147 0.376,0.438c0.09,0.291 0.095,0.577 0.016,0.859c-0.101,0.381 -0.152,1.205 -0.152,2.471c-0,1.265 0.061,1.969 0.181,2.11c0.101,0.161 0.401,0.28 0.905,0.361c0.843,0.12 1.134,0.492 0.873,1.116c-0.1,0.201 -0.296,0.391 -0.586,0.573c-0.287,0.176 -0.55,0.267 -0.788,0.27l-0.011,-0c-0.242,-0 -0.504,-0.145 -0.784,-0.436c-0.283,-0.291 -0.423,-0.558 -0.423,-0.798c-0,-0.262 -0.035,-0.508 -0.106,-0.74c-0.069,-0.23 -0.145,-0.346 -0.224,-0.346c-0.101,-0 -0.151,0.061 -0.151,0.18c-0.142,0.463 -0.478,0.964 -1.01,1.508c-0.529,0.537 -1.092,0.81 -1.69,0.814l-0.014,-0c-0.34,-0 -0.583,-0.031 -0.723,-0.092c-0.14,-0.058 -0.312,-0.22 -0.512,-0.481c-0.764,-0.885 -1.182,-1.985 -1.251,-3.3c-0.07,-1.317 0.236,-2.457 0.92,-3.422c0.602,-0.863 1.165,-1.427 1.688,-1.688c0.216,-0.119 0.813,-0.178 1.791,-0.18l0.047,-0l0.003,-0Zm-10.399,-0c0.121,0.002 0.398,0.132 0.825,0.391c0.433,0.262 0.698,0.392 0.8,0.392c0.159,-0 0.285,0.147 0.375,0.438c0.091,0.291 0.096,0.577 0.016,0.859c-0.1,0.381 -0.151,1.205 -0.151,2.471c0,1.265 0.061,1.969 0.18,2.11c0.101,0.161 0.402,0.28 0.906,0.361c0.843,0.12 1.134,0.492 0.872,1.116c-0.1,0.201 -0.295,0.391 -0.586,0.573c-0.286,0.176 -0.549,0.267 -0.786,0.27l-0.012,-0c-0.242,-0 -0.504,-0.145 -0.784,-0.436c-0.283,-0.291 -0.423,-0.558 -0.423,-0.798c0,-0.262 -0.035,-0.508 -0.106,-0.74c-0.069,-0.23 -0.145,-0.346 -0.224,-0.346c-0.101,-0 -0.152,0.061 -0.152,0.18c-0.141,0.463 -0.477,0.964 -1.009,1.508c-0.528,0.537 -1.092,0.81 -1.689,0.814l-0.015,-0c-0.34,-0 -0.583,-0.031 -0.723,-0.092c-0.141,-0.058 -0.312,-0.22 -0.513,-0.481c-0.764,-0.885 -1.181,-1.985 -1.25,-3.3c-0.07,-1.317 0.235,-2.457 0.92,-3.422c0.602,-0.863 1.165,-1.427 1.687,-1.688c0.217,-0.119 0.814,-0.178 1.793,-0.18l0.046,-0l0.003,-0Zm-127.026,0.693c0.444,0.222 0.679,0.578 0.71,1.07c0.03,0.494 -0.155,0.879 -0.557,1.16c-0.343,0.242 -0.855,0.996 -1.538,2.261c-0.683,1.266 -1.076,2.201 -1.176,2.803c-0.101,0.603 -0.417,0.949 -0.949,1.039c-0.096,0.016 -0.189,0.025 -0.278,0.025l-0.012,0c-0.404,-0 -0.744,-0.165 -1.021,-0.491c-0.161,-0.161 -0.247,-0.282 -0.257,-0.362c-0.009,-0.081 0.026,-0.211 0.106,-0.392c0.08,-0.16 0.095,-0.347 0.046,-0.558c-0.051,-0.211 -0.206,-0.576 -0.468,-1.1c-0.321,-0.663 -0.663,-1.406 -1.025,-2.229c-0.18,-0.403 -0.327,-0.663 -0.436,-0.785c-0.111,-0.121 -0.236,-0.18 -0.377,-0.18c-0.222,-0 -0.463,-0.137 -0.724,-0.407c-0.261,-0.272 -0.392,-0.507 -0.392,-0.708c-0,-0.303 0.121,-0.599 0.362,-0.89c0.162,-0.196 0.342,-0.294 0.541,-0.295l0.007,0c0.094,0.001 0.193,0.024 0.296,0.069c0.362,0.06 0.607,0.181 0.738,0.361c0.131,0.182 0.227,0.533 0.287,1.057c0.101,0.882 0.723,2.269 1.868,4.158c0.221,0.376 0.433,0.564 0.636,0.563l0.005,-0c0.24,-0.006 0.469,-0.274 0.686,-0.804c0.019,-0.121 0.185,-0.488 0.497,-1.101c0.311,-0.612 0.588,-1.215 0.829,-1.808c0.241,-0.591 0.311,-0.968 0.211,-1.13c-0.201,-0.32 -0.192,-0.633 0.03,-0.935c0.22,-0.301 0.513,-0.502 0.874,-0.603l0.481,0.212Zm114.157,0.853c0.068,-0.002 0.218,-0.086 0.449,-0.25c0.702,-0.503 1.477,-0.738 2.32,-0.709c0.845,0.031 1.556,0.338 2.14,0.92c0.784,0.764 1.255,1.658 1.416,2.682c0.101,0.723 0.021,1.513 -0.24,2.367c-0.262,0.853 -0.674,1.36 -1.236,1.521c-0.242,0.061 -0.694,0.262 -1.357,0.603c-0.401,0.182 -0.953,0.282 -1.656,0.302c-0.066,0.001 -0.13,0.002 -0.192,0.002l-0.016,0c-0.596,0 -1.029,-0.082 -1.301,-0.244c-0.119,-0.079 -0.345,-0.145 -0.678,-0.195c-0.331,-0.051 -0.557,-0.127 -0.677,-0.226c-0.121,-0.161 -0.171,-1.919 -0.151,-5.275c0.02,-2.251 0.014,-3.672 -0.015,-4.264c-0.03,-0.594 -0.106,-0.951 -0.225,-1.07c-0.142,-0.161 -0.222,-0.407 -0.243,-0.739c-0.019,-0.331 0.031,-0.608 0.151,-0.829c0.115,-0.189 0.322,-0.286 0.626,-0.287l0.007,-0l0.008,-0c0.013,-0 0.025,0 0.038,0.001c0.33,0.01 0.657,0.116 0.98,0.316c0.32,0.201 0.497,0.473 0.526,0.815c0.031,0.34 -0.095,0.631 -0.376,0.874c-0.2,0.201 -0.332,0.301 -0.393,0.301c-0.019,-0 -0.035,0.27 -0.045,0.814c-0.01,0.542 0,1.094 0.032,1.657c0.029,0.563 0.054,0.863 0.074,0.903c0.007,0.007 0.018,0.01 0.032,0.01l0.002,0Zm-26.919,6.399c0.034,-0 0.068,-0.001 0.103,-0.003c0.732,-0.032 1.401,-0.327 2.004,-0.89c0.302,-0.302 0.488,-0.523 0.558,-0.663c0.069,-0.141 0.106,-0.382 0.106,-0.725c-0,-0.663 0.21,-1.089 0.632,-1.279c0.422,-0.192 0.774,-0.036 1.054,0.466c0.584,0.965 0.322,1.698 -0.782,2.201c-0.423,0.182 -0.775,0.412 -1.055,0.694c-0.383,0.381 -0.739,0.642 -1.069,0.783c-0.333,0.14 -0.861,0.251 -1.583,0.332c-0.071,0.008 -0.141,0.011 -0.212,0.012l-0.01,-0c-0.715,-0.001 -1.455,-0.357 -2.22,-1.068c-0.403,-0.381 -0.659,-0.667 -0.768,-0.859c-0.11,-0.191 -0.248,-0.568 -0.407,-1.13c-0.061,-0.22 -0.106,-0.432 -0.137,-0.632c-0.029,-0.201 -0.05,-0.362 -0.059,-0.484c-0.01,-0.119 0.004,-0.286 0.045,-0.497c0.04,-0.211 0.065,-0.34 0.074,-0.391c0.011,-0.05 0.056,-0.196 0.137,-0.438c0.08,-0.241 0.12,-0.381 0.12,-0.421c0.161,-0.462 0.467,-1.014 0.919,-1.658c0.452,-0.642 0.909,-1.055 1.371,-1.236c0.237,-0.088 0.571,-0.132 1.002,-0.134l0.028,-0l0.028,-0c0.14,0 0.29,0.005 0.451,0.014c0.682,0.04 1.163,0.151 1.445,0.331c0.484,0.301 0.835,0.723 1.055,1.265c0.321,0.705 0.292,1.118 -0.09,1.237c-0.1,0.041 -0.297,0.177 -0.588,0.407c-0.292,0.231 -0.498,0.356 -0.617,0.377c-0.1,0 -0.151,0.05 -0.151,0.15c-0.081,0.12 -0.352,0.347 -0.814,0.679c-0.462,0.331 -0.713,0.517 -0.753,0.558c-0.884,0.783 -1.518,1.225 -1.899,1.326c-0.562,0.161 -0.533,0.471 0.09,0.933c0.626,0.495 1.284,0.742 1.975,0.743l0.017,-0Zm-182.259,-8.02c0.14,0 0.29,0.005 0.45,0.014c0.683,0.04 1.165,0.151 1.446,0.331c0.482,0.301 0.834,0.723 1.055,1.265c0.321,0.705 0.291,1.118 -0.091,1.237c-0.1,0.041 -0.296,0.177 -0.587,0.407c-0.291,0.231 -0.497,0.356 -0.618,0.377c-0.101,0 -0.15,0.05 -0.15,0.15c-0.081,0.12 -0.353,0.347 -0.814,0.679c-0.463,0.331 -0.714,0.517 -0.754,0.558c-0.884,0.783 -1.518,1.225 -1.898,1.326c-0.563,0.161 -0.533,0.471 0.089,0.933c0.628,0.495 1.286,0.742 1.976,0.743l0.017,-0c0.035,-0 0.069,-0.001 0.103,-0.003c0.733,-0.032 1.401,-0.327 2.003,-0.89c0.302,-0.302 0.488,-0.523 0.558,-0.663c0.07,-0.141 0.106,-0.382 0.106,-0.725c0,-0.663 0.211,-1.089 0.632,-1.279c0.116,-0.052 0.226,-0.079 0.331,-0.079l0.009,-0c0.275,0.003 0.514,0.185 0.716,0.545c0.583,0.965 0.321,1.698 -0.784,2.201c-0.422,0.182 -0.774,0.412 -1.055,0.694c-0.382,0.381 -0.738,0.642 -1.07,0.783c-0.331,0.14 -0.859,0.251 -1.582,0.332c-0.07,0.008 -0.141,0.011 -0.212,0.012l-0.009,-0c-0.715,-0.001 -1.455,-0.357 -2.221,-1.068c-0.401,-0.381 -0.658,-0.667 -0.768,-0.859c-0.11,-0.191 -0.246,-0.568 -0.407,-1.13c-0.06,-0.22 -0.105,-0.432 -0.135,-0.632c-0.03,-0.201 -0.051,-0.362 -0.061,-0.484c-0.01,-0.119 0.005,-0.286 0.045,-0.497c0.041,-0.211 0.065,-0.34 0.075,-0.391c0.011,-0.05 0.056,-0.196 0.136,-0.438c0.08,-0.241 0.121,-0.381 0.121,-0.421c0.161,-0.462 0.467,-1.014 0.919,-1.658c0.452,-0.642 0.909,-1.055 1.371,-1.236c0.242,-0.09 0.585,-0.134 1.03,-0.134l0.028,-0Zm138.726,-0c0.14,0 0.29,0.005 0.449,0.014c0.684,0.04 1.167,0.151 1.447,0.331c0.482,0.301 0.835,0.723 1.057,1.265c0.32,0.705 0.29,1.118 -0.092,1.237c-0.1,0.041 -0.297,0.177 -0.587,0.407c-0.291,0.231 -0.499,0.356 -0.618,0.377c-0.102,0 -0.151,0.05 -0.151,0.15c-0.079,0.12 -0.353,0.347 -0.814,0.679c-0.463,0.331 -0.713,0.517 -0.755,0.558c-0.882,0.783 -1.516,1.225 -1.897,1.326c-0.562,0.161 -0.533,0.471 0.09,0.933c0.627,0.495 1.285,0.742 1.975,0.743l0.017,-0c0.035,-0 0.069,-0.001 0.103,-0.003c0.734,-0.032 1.402,-0.327 2.004,-0.89c0.302,-0.302 0.488,-0.523 0.558,-0.663c0.069,-0.141 0.105,-0.382 0.105,-0.725c0,-0.663 0.211,-1.089 0.633,-1.279c0.116,-0.052 0.226,-0.079 0.331,-0.079l0.009,-0c0.275,0.003 0.514,0.185 0.716,0.545c0.582,0.965 0.32,1.698 -0.784,2.201c-0.423,0.182 -0.775,0.412 -1.055,0.694c-0.383,0.381 -0.739,0.642 -1.069,0.783c-0.333,0.14 -0.86,0.251 -1.583,0.332c-0.07,0.008 -0.141,0.011 -0.212,0.012l-0.009,-0c-0.715,-0.001 -1.456,-0.357 -2.221,-1.068c-0.401,-0.381 -0.657,-0.667 -0.768,-0.859c-0.11,-0.191 -0.246,-0.568 -0.408,-1.13c-0.06,-0.22 -0.105,-0.432 -0.136,-0.632c-0.029,-0.201 -0.05,-0.362 -0.059,-0.484c-0.01,-0.119 0.004,-0.286 0.045,-0.497c0.04,-0.211 0.065,-0.34 0.074,-0.391c0.011,-0.05 0.056,-0.196 0.137,-0.438c0.08,-0.241 0.12,-0.381 0.12,-0.421c0.161,-0.462 0.468,-1.014 0.919,-1.658c0.452,-0.642 0.909,-1.055 1.371,-1.236c0.243,-0.09 0.586,-0.134 1.03,-0.134l0.028,-0Zm125.426,-0c0.14,0 0.29,0.005 0.45,0.014c0.683,0.04 1.163,0.151 1.445,0.331c0.484,0.301 0.835,0.723 1.055,1.265c0.322,0.705 0.293,1.118 -0.09,1.237c-0.1,0.041 -0.296,0.177 -0.587,0.407c-0.293,0.231 -0.499,0.356 -0.618,0.377c-0.1,0 -0.15,0.05 -0.15,0.15c-0.082,0.12 -0.352,0.347 -0.815,0.679c-0.462,0.331 -0.713,0.517 -0.753,0.558c-0.884,0.783 -1.518,1.225 -1.899,1.326c-0.562,0.161 -0.533,0.471 0.09,0.933c0.627,0.495 1.285,0.742 1.976,0.743l0.017,-0c0.034,-0 0.069,-0.001 0.103,-0.003c0.732,-0.032 1.4,-0.327 2.004,-0.89c0.301,-0.302 0.487,-0.523 0.558,-0.663c0.069,-0.141 0.106,-0.382 0.106,-0.725c0,-0.663 0.209,-1.089 0.631,-1.279c0.116,-0.052 0.226,-0.079 0.331,-0.079l0.009,-0c0.275,0.003 0.513,0.185 0.715,0.545c0.583,0.965 0.321,1.698 -0.783,2.201c-0.422,0.182 -0.774,0.412 -1.054,0.694c-0.383,0.381 -0.739,0.642 -1.07,0.783c-0.333,0.14 -0.861,0.251 -1.583,0.332c-0.07,0.008 -0.141,0.011 -0.212,0.012l-0.009,-0c-0.716,-0.001 -1.456,-0.357 -2.22,-1.068c-0.404,-0.381 -0.66,-0.667 -0.769,-0.859c-0.11,-0.191 -0.247,-0.568 -0.406,-1.13c-0.061,-0.22 -0.106,-0.432 -0.137,-0.632c-0.029,-0.201 -0.051,-0.362 -0.06,-0.484c-0.009,-0.119 0.004,-0.286 0.046,-0.497c0.039,-0.211 0.064,-0.34 0.074,-0.391c0.01,-0.05 0.055,-0.196 0.137,-0.438c0.079,-0.241 0.119,-0.381 0.119,-0.421c0.161,-0.462 0.468,-1.014 0.92,-1.658c0.451,-0.642 0.908,-1.055 1.371,-1.236c0.242,-0.09 0.585,-0.134 1.03,-0.134l0.028,-0Zm-8.421,0.817c0.101,0.102 0.25,0.255 0.449,0.463c0.211,0.221 0.341,0.362 0.39,0.423c0.051,0.06 0.141,0.185 0.273,0.376c0.13,0.191 0.214,0.351 0.256,0.482c0.04,0.13 0.105,0.336 0.195,0.618c0.091,0.28 0.17,0.587 0.241,0.92c0.072,0.33 0.155,0.748 0.256,1.25c0.201,0.824 0.362,1.297 0.483,1.416c0.321,0.383 0.17,0.885 -0.454,1.508c-0.33,0.332 -0.643,0.498 -0.94,0.5l-0.006,-0c-0.26,-0.001 -0.506,-0.128 -0.739,-0.38c-0.183,-0.221 -0.273,-0.371 -0.273,-0.452c-0,-0.08 0.09,-0.341 0.273,-0.783c0.22,-0.483 0.42,-0.755 0.602,-0.814c0.14,0 0.225,-0.076 0.256,-0.226c0.03,-0.151 0.025,-0.328 -0.015,-0.529c-0.04,-0.2 -0.081,-0.381 -0.121,-0.542c-0.041,-0.161 -0.081,-0.28 -0.12,-0.361c-0.1,-0.161 -0.151,-0.342 -0.151,-0.542c-0,-0.222 -0.11,-0.562 -0.332,-1.025c-0.222,-0.462 -0.432,-0.793 -0.632,-0.996c-0.269,-0.249 -0.625,-0.377 -1.069,-0.38l-0.012,0c-0.05,0 -0.102,0.002 -0.155,0.005c-0.524,0.029 -1.035,0.206 -1.538,0.526c-0.724,0.464 -1.165,0.813 -1.326,1.057c-0.161,0.24 -0.261,0.672 -0.301,1.294c-0.04,0.705 -0,1.307 0.121,1.809c0.24,0.925 0.302,1.512 0.18,1.763c-0.12,0.251 -0.502,0.387 -1.145,0.407c-0.042,0.002 -0.082,0.003 -0.122,0.003l-0.02,0c-0.379,-0.001 -0.694,-0.078 -0.943,-0.229c-0.282,-0.171 -0.423,-0.396 -0.423,-0.678c-0,-0.281 0.137,-0.532 0.407,-0.753c0.272,-0.222 0.589,-0.291 0.951,-0.211l-0.061,-2.442c-0.081,-2.874 -0.142,-4.567 -0.182,-5.078c-0.04,-0.512 -0.15,-0.84 -0.331,-0.979c-0.221,-0.183 -0.366,-0.468 -0.437,-0.86c-0.069,-0.392 0.025,-0.697 0.287,-0.919c0.232,-0.255 0.485,-0.383 0.757,-0.386l0.006,0l0.007,0c0.24,0.001 0.496,0.099 0.768,0.295c0.581,0.422 0.692,0.844 0.33,1.267c-0.401,0.442 -0.513,1.416 -0.33,2.922l0.18,1.509l1.024,-0.634c0.482,-0.302 0.83,-0.481 1.041,-0.542c0.21,-0.06 0.607,-0.092 1.19,-0.092l1.236,0l0.019,0.02Zm-193.968,0.021c0.101,0.102 0.243,0.248 0.427,0.442c0.212,0.221 0.342,0.362 0.392,0.423c0.051,0.06 0.14,0.185 0.271,0.376c0.131,0.191 0.216,0.351 0.256,0.482c0.04,0.13 0.107,0.336 0.197,0.618c0.09,0.28 0.169,0.587 0.241,0.92c0.07,0.33 0.156,0.748 0.256,1.25c0.201,0.824 0.362,1.297 0.482,1.416c0.321,0.383 0.171,0.885 -0.451,1.508c-0.332,0.332 -0.646,0.498 -0.943,0.5l-0.006,-0c-0.26,-0.001 -0.507,-0.128 -0.74,-0.38c-0.181,-0.221 -0.271,-0.371 -0.271,-0.452c0,-0.08 0.09,-0.341 0.271,-0.783c0.221,-0.483 0.423,-0.755 0.603,-0.814c0.141,0 0.226,-0.076 0.256,-0.226c0.03,-0.151 0.025,-0.328 -0.015,-0.529c-0.04,-0.2 -0.08,-0.381 -0.12,-0.542c-0.041,-0.161 -0.081,-0.28 -0.121,-0.361c-0.101,-0.161 -0.151,-0.342 -0.151,-0.542c0,-0.222 -0.11,-0.562 -0.332,-1.025c-0.22,-0.462 -0.431,-0.793 -0.632,-0.996c-0.302,-0.28 -0.714,-0.407 -1.236,-0.375c-0.523,0.029 -1.035,0.206 -1.537,0.526c-0.723,0.464 -1.165,0.813 -1.326,1.057c-0.161,0.24 -0.262,0.672 -0.302,1.294c-0.04,0.705 0,1.307 0.121,1.809c0.241,0.925 0.302,1.512 0.181,1.763c-0.121,0.251 -0.502,0.387 -1.145,0.407c-0.042,0.002 -0.082,0.003 -0.122,0.003l-0.02,0c-0.379,-0.001 -0.693,-0.078 -0.943,-0.229c-0.282,-0.171 -0.423,-0.396 -0.423,-0.678c0,-0.281 0.136,-0.532 0.407,-0.753c0.2,-0.163 0.423,-0.244 0.671,-0.243l0.008,-0c0.087,0.001 0.178,0.011 0.271,0.032l-0.06,-2.442c-0.081,-2.874 -0.141,-4.567 -0.181,-5.078c-0.041,-0.512 -0.15,-0.84 -0.332,-0.979c-0.221,-0.183 -0.366,-0.468 -0.437,-0.86c-0.07,-0.392 0.025,-0.697 0.287,-0.919c0.233,-0.255 0.485,-0.383 0.757,-0.386l0.007,0l0.006,0c0.24,0.001 0.496,0.099 0.767,0.295c0.582,0.422 0.693,0.844 0.331,1.267c-0.402,0.442 -0.513,1.416 -0.331,2.922l0.18,1.509l1.026,-0.634c0.482,-0.302 0.828,-0.481 1.039,-0.542c0.211,-0.06 0.608,-0.092 1.191,-0.092l1.235,0l0.04,0.041Zm209.921,-0.859c0.172,0.001 0.384,0.073 0.634,0.216c0.644,0.422 0.813,0.916 0.512,1.476c-0.221,0.484 -0.262,1.799 -0.119,3.95c0.039,0.623 0.085,1.014 0.135,1.175c0.05,0.161 0.135,0.241 0.256,0.241c0.14,0 0.23,0.08 0.272,0.241c0.039,0.161 0.025,0.346 -0.045,0.557c-0.071,0.211 -0.187,0.388 -0.348,0.528c-0.247,0.228 -0.444,0.344 -0.594,0.347l-0.003,-0c-0.008,-0 -0.015,-0 -0.022,-0.001c-0.15,-0.01 -0.396,-0.166 -0.737,-0.467l-0.573,-0.512c0.341,-0.582 0.533,-1.015 0.573,-1.296c0.04,-0.301 0.061,-0.995 0.061,-2.079c-0,-1.046 -0.016,-1.703 -0.045,-1.976c-0.031,-0.269 -0.116,-0.486 -0.256,-0.647c-0.201,-0.22 -0.302,-0.513 -0.302,-0.874c-0,-0.362 0.101,-0.622 0.302,-0.783c0.079,-0.064 0.177,-0.096 0.292,-0.096l0.007,-0Zm-224.699,6.606c0.121,0 0.181,0.061 0.181,0.18c0.181,0.342 0.597,0.538 1.251,0.589c0.652,0.049 1.19,-0.045 1.613,-0.288c0.28,-0.14 0.456,-0.259 0.527,-0.362c0.07,-0.1 0.106,-0.28 0.106,-0.542c0,-0.341 0.12,-0.621 0.362,-0.843c0.38,-0.301 0.783,-0.373 1.205,-0.212c0.422,0.162 0.632,0.463 0.632,0.905c0,0.322 -0.07,0.562 -0.21,0.723c-0.141,0.162 -0.373,0.312 -0.693,0.453c-0.323,0.139 -0.543,0.251 -0.663,0.33c-1.427,0.985 -2.704,1.186 -3.829,0.604c-0.381,-0.182 -0.844,-0.613 -1.386,-1.297c-0.382,-0.481 -0.608,-0.808 -0.679,-0.979c-0.069,-0.17 -0.105,-0.527 -0.105,-1.071c0,-0.721 0.131,-1.355 0.392,-1.897c0.201,-0.443 0.527,-0.914 0.98,-1.418c0.452,-0.502 0.768,-0.753 0.949,-0.753c0.04,-0.019 0.17,-0.075 0.392,-0.167c0.221,-0.09 0.376,-0.145 0.468,-0.164c0.09,-0.02 0.23,-0.045 0.421,-0.076c0.19,-0.029 0.377,-0.02 0.558,0.031c0.18,0.05 0.382,0.124 0.602,0.225c0.322,0.142 0.653,0.151 0.995,0.031c0.221,-0.101 0.382,-0.137 0.482,-0.106c0.1,0.03 0.251,0.157 0.453,0.376c0.502,0.583 0.482,1.146 -0.061,1.688c-0.422,0.423 -0.824,0.573 -1.206,0.452c-0.382,-0.119 -0.602,-0.471 -0.663,-1.055c-0.04,-0.26 -0.09,-0.421 -0.151,-0.482c-0.059,-0.06 -0.29,-0.099 -0.692,-0.12c-0.523,-0.021 -1.035,0.13 -1.538,0.452c-0.503,0.322 -0.854,0.714 -1.055,1.176c-0.301,0.723 -0.407,1.416 -0.316,2.079c0.09,0.663 0.316,1.176 0.678,1.538Zm-8.362,-5.514c-0.276,0.001 -0.534,0.061 -0.771,0.18c-0.824,0.421 -1.411,1.189 -1.762,2.304c-0.353,1.116 -0.358,2.227 -0.016,3.331c0.221,0.744 0.573,1.187 1.055,1.327c0.109,0.032 0.22,0.047 0.333,0.047l0.011,-0c0.381,-0.005 0.778,-0.192 1.193,-0.56c0.784,-0.702 1.246,-2.008 1.387,-3.918c0.02,-0.161 0.04,-0.367 0.06,-0.618c0.019,-0.251 0.035,-0.462 0.046,-0.634c0.009,-0.169 0.025,-0.296 0.045,-0.375c0.039,-0.222 0.039,-0.378 -0,-0.468c-0.041,-0.09 -0.151,-0.185 -0.332,-0.286c-0.447,-0.218 -0.858,-0.328 -1.233,-0.33l-0.016,-0Zm193.084,-0c-0.277,0.001 -0.535,0.061 -0.772,0.18c-0.824,0.421 -1.411,1.189 -1.762,2.304c-0.352,1.116 -0.357,2.227 -0.016,3.331c0.222,0.744 0.573,1.187 1.055,1.327c0.109,0.032 0.22,0.047 0.333,0.047l0.011,-0c0.381,-0.005 0.779,-0.192 1.193,-0.56c0.785,-0.702 1.247,-2.008 1.388,-3.918c0.018,-0.161 0.039,-0.367 0.06,-0.618c0.019,-0.251 0.034,-0.462 0.045,-0.634c0.01,-0.169 0.025,-0.296 0.045,-0.375c0.04,-0.222 0.04,-0.378 -0,-0.468c-0.04,-0.09 -0.15,-0.185 -0.331,-0.286c-0.447,-0.218 -0.859,-0.328 -1.234,-0.33l-0.015,-0Zm-130.218,-0c-0.277,0.001 -0.534,0.061 -0.772,0.18c-0.824,0.421 -1.411,1.189 -1.762,2.304c-0.353,1.116 -0.357,2.227 -0.015,3.331c0.22,0.744 0.572,1.187 1.054,1.327c0.11,0.032 0.221,0.047 0.333,0.047l0.012,-0c0.38,-0.005 0.778,-0.192 1.193,-0.56c0.784,-0.702 1.246,-2.008 1.387,-3.918c0.018,-0.161 0.04,-0.367 0.06,-0.618c0.019,-0.251 0.034,-0.462 0.045,-0.634c0.011,-0.169 0.025,-0.296 0.045,-0.375c0.04,-0.222 0.04,-0.378 0,-0.468c-0.042,-0.09 -0.15,-0.185 -0.332,-0.286c-0.446,-0.218 -0.857,-0.328 -1.232,-0.33l-0.016,-0Zm119.819,-0c-0.277,0.001 -0.534,0.061 -0.771,0.18c-0.824,0.421 -1.411,1.189 -1.762,2.304c-0.352,1.116 -0.357,2.227 -0.016,3.331c0.222,0.744 0.573,1.187 1.055,1.327c0.109,0.032 0.22,0.047 0.332,0.047l0.011,-0c0.381,-0.005 0.779,-0.192 1.194,-0.56c0.784,-0.702 1.247,-2.008 1.387,-3.918c0.019,-0.161 0.04,-0.367 0.06,-0.618c0.02,-0.251 0.035,-0.462 0.045,-0.634c0.011,-0.169 0.025,-0.296 0.046,-0.375c0.039,-0.222 0.039,-0.378 -0,-0.468c-0.04,-0.09 -0.151,-0.185 -0.331,-0.286c-0.448,-0.218 -0.859,-0.328 -1.234,-0.33l-0.016,-0Zm-9.855,0.725c-0.191,-0.001 -0.337,0.013 -0.438,0.042c-0.182,0.051 -0.443,0.196 -0.784,0.436c-0.484,0.323 -0.804,0.7 -0.965,1.131c-0.161,0.433 -0.272,1.212 -0.332,2.335l-0.091,1.749c0.04,0.021 0.107,0.061 0.196,0.121c0.091,0.06 0.146,0.096 0.166,0.106c0.021,0.011 0.077,0.04 0.165,0.091c0.09,0.049 0.152,0.079 0.182,0.09c0.03,0.009 0.085,0.025 0.166,0.044c0.078,0.021 0.154,0.037 0.226,0.045c0.069,0.011 0.155,0.021 0.256,0.032c0.05,0.005 0.102,0.007 0.157,0.007l0.011,-0c0.052,-0 0.107,-0.003 0.163,-0.007c0.121,-0.011 0.252,-0.016 0.391,-0.016c0.925,-0.061 1.668,-0.23 2.233,-0.513c0.601,-0.28 0.988,-0.576 1.159,-0.887c0.17,-0.313 0.264,-0.851 0.286,-1.615c0.02,-1.085 -0.342,-1.968 -1.085,-2.652c-0.341,-0.301 -0.855,-0.471 -1.537,-0.513c-0.194,-0.017 -0.364,-0.026 -0.509,-0.026l-0.016,-0Zm-228.294,-5.988c0.002,0 0.005,0.001 0.007,0.001c0.07,0.011 0.215,0.116 0.437,0.317c0.181,0.161 0.411,0.272 0.693,0.333c0.281,0.06 0.904,0.129 1.869,0.21c2.511,0.18 3.938,0.442 4.279,0.783c0.101,0.1 0.251,0.151 0.452,0.151c0.122,-0 0.272,0.081 0.453,0.24c0.18,0.163 0.321,0.243 0.421,0.243c0.182,-0 0.548,0.225 1.101,0.677c0.552,0.453 0.919,0.819 1.1,1.101c0.2,0.322 0.301,0.743 0.301,1.265c-0,0.524 -0.09,0.965 -0.272,1.327c-0.2,0.38 -0.632,0.723 -1.295,1.025c-0.684,0.322 -1.076,0.481 -1.176,0.481c-0.08,-0 -0.206,0.077 -0.377,0.227c-0.17,0.15 -0.297,0.225 -0.376,0.225c-0.161,-0 -0.372,0.102 -0.633,0.303c-0.242,0.201 -0.834,0.462 -1.778,0.783c-0.946,0.322 -1.557,0.583 -1.839,0.784c-0.182,0.127 -0.397,0.193 -0.645,0.196l-0.013,0c-0.022,0 -0.043,-0 -0.065,-0.001c-0.282,-0.01 -0.533,0.046 -0.754,0.167c-0.141,0.101 -0.306,0.169 -0.497,0.209c-0.191,0.042 -0.347,0.121 -0.467,0.242c-0.506,0.436 -0.924,0.655 -1.252,0.658l-0.006,0c-0.139,0.001 -0.262,-0.038 -0.369,-0.116c-0.443,-0.22 -0.644,-0.596 -0.604,-1.13c0.041,-0.532 0.302,-0.878 0.784,-1.039c0.321,-0.121 0.583,-0.092 0.784,0.09c0.16,0.141 0.31,0.211 0.452,0.211l0.006,-0c0.14,-0.002 0.34,-0.072 0.596,-0.211c0.282,-0.141 0.513,-0.211 0.694,-0.211c0.06,-0 0.105,-0.029 0.136,-0.09c0.03,-0.06 0.06,-0.236 0.089,-0.528c0.031,-0.291 0.046,-0.667 0.046,-1.131l-0,-5.997l-0.904,-0l-0.011,-0.001c-0.436,-0.058 -0.765,0.039 -0.984,0.288c-0.188,0.214 -0.42,0.322 -0.696,0.324l-0.008,0c-0.045,0.001 -0.092,-0.002 -0.14,-0.008c-0.261,-0.02 -0.417,-0.06 -0.467,-0.12c-0.05,-0.061 -0.096,-0.211 -0.135,-0.452c-0.061,-0.644 0.161,-1.175 0.663,-1.598c0.187,-0.151 0.319,-0.226 0.393,-0.228l0.003,0l0.004,0Zm296.538,11.766c-0.164,0 -0.354,-0.008 -0.568,-0.024c-0.782,-0.04 -1.351,-0.117 -1.702,-0.227c-0.352,-0.109 -0.689,-0.325 -1.009,-0.647c-0.443,-0.423 -0.729,-0.804 -0.859,-1.145c-0.132,-0.343 -0.166,-0.835 -0.106,-1.476c0.101,-1.388 0.658,-2.402 1.673,-3.046c1.015,-0.643 2.245,-0.793 3.691,-0.453c0.122,0.061 0.216,0.101 0.288,0.122c0.045,0.013 0.086,0.02 0.124,0.02l0.005,0c0.018,0 0.034,-0.002 0.05,-0.005c0.051,-0.01 0.085,-0.031 0.106,-0.06c0.019,-0.032 0.035,-0.086 0.045,-0.166c0.01,-0.079 0.015,-0.166 0.015,-0.256c-0,-0.091 0.006,-0.201 0.016,-0.331c0.009,-0.132 0.024,-0.256 0.045,-0.377c0.059,-0.542 0.069,-0.865 0.03,-0.965c-0.04,-0.101 -0.172,-0.211 -0.392,-0.332c-0.261,-0.12 -0.472,-0.326 -0.633,-0.617c-0.161,-0.292 -0.201,-0.538 -0.119,-0.74c0.079,-0.221 0.3,-0.421 0.663,-0.602c0.365,-0.192 0.597,-0.289 0.696,-0.288l0.003,0c0.003,0 0.006,0 0.009,0.001c0.089,0.011 0.256,0.127 0.497,0.347c0.28,0.262 0.381,0.533 0.3,0.815c-0.181,1.084 -0.24,3.807 -0.181,8.167l0.483,0.513c0.322,0.26 0.497,0.502 0.528,0.723c0.03,0.222 -0.066,0.462 -0.288,0.724c-0.243,0.304 -0.516,0.457 -0.818,0.458l-0.006,0c-0.195,0 -0.402,-0.063 -0.621,-0.189c-0.584,-0.32 -0.974,-0.36 -1.176,-0.119c-0.087,0.115 -0.345,0.174 -0.774,0.175l-0.015,0Zm-150.38,0c-0.165,0 -0.354,-0.008 -0.568,-0.024c-0.784,-0.04 -1.352,-0.117 -1.703,-0.227c-0.354,-0.109 -0.69,-0.325 -1.012,-0.647c-0.439,-0.423 -0.726,-0.804 -0.858,-1.145c-0.13,-0.343 -0.165,-0.835 -0.104,-1.476c0.1,-1.388 0.657,-2.402 1.672,-3.046c1.015,-0.643 2.244,-0.793 3.691,-0.453c0.122,0.061 0.217,0.101 0.288,0.122c0.045,0.013 0.087,0.02 0.124,0.02l0.005,0c0.018,0 0.035,-0.002 0.051,-0.005c0.05,-0.01 0.086,-0.031 0.106,-0.06c0.018,-0.032 0.034,-0.086 0.045,-0.166c0.01,-0.079 0.015,-0.166 0.015,-0.256c-0,-0.091 0.004,-0.201 0.014,-0.331c0.011,-0.132 0.026,-0.256 0.045,-0.377c0.062,-0.542 0.071,-0.865 0.031,-0.965c-0.041,-0.101 -0.17,-0.211 -0.392,-0.332c-0.26,-0.12 -0.472,-0.326 -0.632,-0.617c-0.161,-0.292 -0.201,-0.538 -0.122,-0.74c0.082,-0.221 0.301,-0.421 0.665,-0.602c0.362,-0.191 0.593,-0.287 0.693,-0.288l0.005,0c0.003,0 0.006,0 0.009,0.001c0.091,0.011 0.256,0.127 0.498,0.347c0.28,0.262 0.381,0.533 0.301,0.815c-0.18,1.084 -0.242,3.807 -0.18,8.167l0.481,0.513c0.323,0.26 0.497,0.502 0.527,0.723c0.031,0.222 -0.064,0.462 -0.285,0.724c-0.244,0.304 -0.517,0.457 -0.819,0.458l-0.006,0c-0.195,0 -0.403,-0.063 -0.622,-0.189c-0.328,-0.18 -0.596,-0.272 -0.803,-0.274l-0.009,-0c-0.157,-0.001 -0.278,0.051 -0.364,0.155c-0.087,0.115 -0.344,0.174 -0.773,0.175l-0.014,0Zm-0.102,-6.207c-0.744,0 -1.241,0.071 -1.49,0.215c-1.107,0.623 -1.66,1.548 -1.66,2.773c-0,0.482 0.08,0.873 0.243,1.176c0.16,0.301 0.46,0.582 0.904,0.843c0.312,0.183 0.791,0.274 1.44,0.274l0.016,0c0.056,0 0.113,-0.001 0.171,-0.002c0.743,-0.021 1.296,-0.14 1.657,-0.362c0.282,-0.182 0.457,-0.361 0.528,-0.544c0.07,-0.18 0.09,-0.431 0.059,-0.753c-0.029,-0.32 -0.014,-0.772 0.045,-1.355c0.121,-1.026 0.092,-1.689 -0.09,-1.99c-0.119,-0.161 -0.632,-0.251 -1.537,-0.271c-0.085,-0.002 -0.167,-0.003 -0.246,-0.004l-0.04,0Zm150.383,0c-0.745,0 -1.243,0.071 -1.492,0.215c-1.107,0.623 -1.659,1.548 -1.659,2.773c-0,0.482 0.079,0.873 0.241,1.176c0.161,0.301 0.461,0.582 0.905,0.843c0.312,0.183 0.792,0.274 1.44,0.274l0.017,0c0.056,0 0.113,-0.001 0.171,-0.002c0.742,-0.021 1.295,-0.14 1.657,-0.362c0.28,-0.182 0.457,-0.361 0.527,-0.544c0.07,-0.18 0.091,-0.431 0.061,-0.753c-0.031,-0.32 -0.016,-0.772 0.045,-1.355c0.12,-1.026 0.091,-1.689 -0.091,-1.99c-0.12,-0.161 -0.633,-0.251 -1.536,-0.271c-0.085,-0.002 -0.167,-0.003 -0.247,-0.004l-0.039,0Zm-15.381,-0.478c-0.256,0 -0.48,0.04 -0.672,0.119c-0.723,0.302 -1.395,1.196 -2.018,2.683c-0.14,0.281 -0.211,0.664 -0.211,1.145c0,0.322 0.019,0.513 0.061,0.573c0.024,0.037 0.072,0.055 0.146,0.056l0.006,-0c0.049,-0.001 0.109,-0.009 0.179,-0.026c0.583,-0.18 1.336,-0.693 2.26,-1.538c0.302,-0.259 0.484,-0.402 0.542,-0.42c0.202,-0.101 0.523,-0.336 0.965,-0.708c0.443,-0.374 0.684,-0.619 0.724,-0.74c0.06,-0.201 -0.016,-0.402 -0.226,-0.602c-0.211,-0.201 -0.509,-0.342 -0.889,-0.423c-0.316,-0.078 -0.601,-0.118 -0.855,-0.119l-0.012,0Zm-82.014,0c-0.256,0 -0.48,0.04 -0.671,0.119c-0.723,0.302 -1.395,1.196 -2.018,2.683c-0.141,0.281 -0.211,0.664 -0.211,1.145c-0,0.322 0.019,0.513 0.061,0.573c0.023,0.037 0.071,0.055 0.145,0.056l0.005,-0c0.05,-0.001 0.109,-0.009 0.18,-0.026c0.584,-0.18 1.337,-0.693 2.261,-1.538c0.301,-0.259 0.483,-0.402 0.542,-0.42c0.201,-0.101 0.523,-0.336 0.964,-0.708c0.444,-0.374 0.684,-0.619 0.724,-0.74c0.06,-0.201 -0.016,-0.402 -0.225,-0.602c-0.212,-0.201 -0.509,-0.342 -0.89,-0.423c-0.316,-0.078 -0.601,-0.118 -0.854,-0.119l-0.013,0Zm-43.41,0c-0.257,0 -0.48,0.04 -0.671,0.119c-0.723,0.302 -1.399,1.196 -2.02,2.683c-0.141,0.281 -0.211,0.664 -0.211,1.145c0,0.322 0.019,0.513 0.061,0.573c0.024,0.037 0.072,0.055 0.146,0.056l0.006,-0c0.049,-0.001 0.109,-0.009 0.18,-0.026c0.582,-0.18 1.335,-0.693 2.259,-1.538c0.301,-0.259 0.483,-0.402 0.542,-0.42c0.201,-0.101 0.523,-0.336 0.966,-0.708c0.44,-0.374 0.683,-0.619 0.722,-0.74c0.06,-0.201 -0.016,-0.402 -0.227,-0.602c-0.209,-0.201 -0.506,-0.342 -0.887,-0.423c-0.316,-0.078 -0.601,-0.118 -0.854,-0.119l-0.012,0Zm-138.727,0c-0.257,0 -0.48,0.04 -0.671,0.119c-0.724,0.302 -1.397,1.196 -2.02,2.683c-0.141,0.281 -0.211,0.664 -0.211,1.145c0,0.322 0.02,0.513 0.061,0.573c0.024,0.037 0.073,0.055 0.146,0.056l0.006,-0c0.049,-0.001 0.109,-0.009 0.18,-0.026c0.582,-0.18 1.335,-0.693 2.26,-1.538c0.301,-0.259 0.482,-0.402 0.542,-0.42c0.201,-0.101 0.522,-0.336 0.965,-0.708c0.442,-0.374 0.683,-0.619 0.723,-0.74c0.06,-0.201 -0.015,-0.402 -0.226,-0.602c-0.211,-0.201 -0.508,-0.342 -0.889,-0.423c-0.316,-0.078 -0.601,-0.118 -0.854,-0.119l-0.012,0Zm-13.63,-3.165c-0,0.222 0.03,2.1 0.09,5.636c0.02,1.024 0.07,1.558 0.151,1.598l0.004,-0c0.04,-0.001 0.109,-0.012 0.207,-0.032c0.482,-0.139 0.999,-0.34 1.552,-0.602c0.553,-0.26 1.216,-0.592 1.99,-0.993c0.773,-0.403 1.23,-0.645 1.371,-0.725c0.924,-0.462 1.386,-0.935 1.386,-1.416c-0,-0.824 -0.854,-1.627 -2.562,-2.412c-0.442,-0.2 -0.779,-0.351 -1.009,-0.451c-0.232,-0.101 -0.473,-0.181 -0.724,-0.241c-0.251,-0.061 -0.437,-0.101 -0.558,-0.122c-0.12,-0.018 -0.381,-0.055 -0.783,-0.105c-0.353,-0.044 -0.681,-0.084 -0.986,-0.12l-0.129,-0.015Zm286.023,-1.696c0.135,0.001 0.234,0.024 0.297,0.068c0.108,0.08 0.166,0.291 0.166,0.632c-0,0.443 -0.061,0.739 -0.182,0.891c-0.095,0.117 -0.238,0.177 -0.43,0.178l-0.011,0.001c-0.051,-0.001 -0.104,-0.005 -0.161,-0.013c-0.484,-0.082 -0.73,-0.368 -0.739,-0.86c-0.011,-0.493 0.215,-0.778 0.678,-0.86c0.144,-0.025 0.267,-0.037 0.37,-0.037l0.012,-0Z" style="fill:#1d1d1b;fill-rule:nonzero;"/><path d="M14.184,146.563l-0,-132.38l400.684,-0l0,-14.183l-414.868,-0l-0,160.747l414.868,-0l0,-14.184l-400.684,-0Z" style="fill:#73942b;fill-rule:nonzero;"/><path d="M409.409,79.884c-0.27,-1.759 -0.514,-3.562 -0.734,-5.41c-0.773,-6.506 -1.167,-12.924 -1.175,-19.257c-0.005,-2.393 0.077,-5.449 0.252,-9.168c0.174,-3.716 0.631,-7.326 1.368,-10.825c0.735,-3.496 1.815,-6.492 3.243,-8.984c1.425,-2.493 3.296,-3.734 5.608,-3.724c1.985,0.083 3.457,1.345 4.418,3.789c0.96,2.444 1.469,5.862 1.527,10.256c0.055,4.396 -0.296,9.651 -1.062,15.765c-0.769,6.114 -1.851,12.833 -3.252,20.154c0.533,4.421 1.122,8.698 1.767,12.837c0.643,4.139 1.317,7.822 2.02,11.05c0.703,3.228 1.411,5.898 2.128,8.007c0.715,2.112 1.443,3.304 2.189,3.568c0.675,0.367 1.429,-0.01 2.255,-1.134c0.827,-1.118 1.658,-2.71 2.492,-4.777c0.835,-2.064 1.641,-4.443 2.423,-7.138c0.784,-2.694 1.512,-5.442 2.186,-8.242c0.675,-2.798 1.239,-5.512 1.696,-8.136c0.454,-2.621 0.814,-4.904 1.077,-6.844c0.103,-0.706 0.377,-1.216 0.825,-1.527c0.444,-0.311 0.887,-0.429 1.333,-0.354c0.443,0.074 0.838,0.309 1.18,0.704c0.342,0.398 0.464,0.95 0.361,1.656c-0.402,2.485 -0.845,5.253 -1.336,8.313c-0.489,3.058 -1.078,6.163 -1.76,9.305c-0.687,3.145 -1.505,6.168 -2.456,9.07c-0.953,2.903 -2.094,5.421 -3.428,7.55c-1.333,2.131 -2.886,3.75 -4.653,4.863c-1.77,1.112 -3.784,1.401 -6.037,0.864c-2.603,-0.545 -4.896,-2.635 -6.885,-6.269c-1.989,-3.629 -3.677,-8.139 -5.062,-13.53l-0.029,-0.113c-0.114,1.086 -0.238,2.179 -0.371,3.28c-0.367,3.033 -0.818,5.977 -1.351,8.83c-0.535,2.858 -1.248,5.385 -2.137,7.589c-0.889,2.206 -2.002,3.987 -3.328,5.349c-1.331,1.357 -2.897,2.018 -4.704,1.983c-1.707,0.029 -3.166,-0.488 -4.38,-1.549c-1.216,-1.061 -2.291,-2.561 -3.225,-4.497c-0.934,-1.935 -1.725,-4.286 -2.37,-7.058c-0.647,-2.767 -1.252,-5.845 -1.817,-9.231c-0.651,4.079 -1.771,7.404 -3.348,9.97c-1.582,2.571 -3.865,3.88 -6.848,3.929c-2.885,0.117 -5.302,-0.856 -7.246,-2.914c-1.21,-1.28 -2.227,-2.774 -3.05,-4.485c-0.062,0.551 -0.127,1.104 -0.194,1.659c-0.367,3.033 -0.818,5.979 -1.351,8.83c-0.535,2.857 -1.247,5.384 -2.137,7.59c-0.889,2.205 -2.001,3.986 -3.328,5.348c-1.331,1.357 -2.897,2.018 -4.702,1.984c-1.707,0.029 -3.168,-0.488 -4.382,-1.55c-1.214,-1.061 -2.291,-2.56 -3.225,-4.496c-0.934,-1.936 -1.725,-4.288 -2.369,-7.06c-0.648,-2.767 -1.253,-5.843 -1.818,-9.23c-0.651,4.079 -1.769,7.404 -3.348,9.969c-1.582,2.571 -3.863,3.881 -6.848,3.931c-2.885,0.116 -5.3,-0.856 -7.244,-2.916c-1.122,-1.185 -2.077,-2.556 -2.867,-4.112c-0.539,3.317 -1.297,6.45 -2.272,9.403c-1.266,3.828 -2.93,6.991 -4.993,9.494c-2.066,2.502 -4.559,3.731 -7.478,3.682c-2.84,-0.067 -5.265,-1.187 -7.277,-3.36c-2.014,-2.169 -3.721,-5.093 -5.12,-8.769c-1.399,-3.677 -2.534,-7.9 -3.399,-12.675c-0.869,-4.773 -1.572,-9.776 -2.11,-15.009c-0.54,-5.231 -0.967,-10.527 -1.278,-15.896c-0.314,-5.365 -0.568,-10.465 -0.762,-15.3c-4.657,1.013 -9.041,2.011 -13.15,2.988c-4.107,0.981 -7.564,1.904 -10.371,2.771c-0.701,0.324 -1.288,0.366 -1.769,0.129c-0.48,-0.237 -0.814,-0.592 -1.003,-1.066c-0.187,-0.473 -0.184,-0.943 0.015,-1.416c0.197,-0.469 0.654,-0.826 1.371,-1.069c3.441,-1.088 7.245,-2.197 11.408,-3.317c4.164,-1.118 8.573,-2.187 13.229,-3.2l-0.55,-10.791c-0.049,-1.015 0.259,-1.854 0.929,-2.513c0.67,-0.657 1.449,-1.104 2.339,-1.341c0.89,-0.238 1.758,-0.192 2.599,0.14c0.842,0.329 1.418,1.019 1.733,2.06c0.435,1.619 0.826,3.309 1.167,5.074c0.34,1.768 0.667,3.557 0.977,5.371c5.837,-1.097 11.531,-2.059 17.087,-2.883c5.552,-0.824 10.575,-1.34 15.066,-1.547c0.589,-0.042 1.035,0.138 1.339,0.542c0.301,0.407 0.481,0.839 0.538,1.297c0.056,0.458 -0.063,0.892 -0.36,1.296c-0.296,0.409 -0.749,0.593 -1.356,0.553c-3.721,0.213 -8.367,0.774 -13.946,1.687c-5.577,0.915 -11.446,1.957 -17.61,3.128c0.756,5.054 1.41,10.218 1.958,15.489c0.547,5.274 1.051,10.427 1.504,15.461c0.454,5.036 0.887,9.778 1.299,14.223c0.41,4.449 0.899,8.365 1.463,11.746c0.567,3.389 1.261,6.081 2.083,8.086c0.819,2.004 1.837,3.046 3.053,3.122c1.559,0.09 3.019,-0.869 4.38,-2.88c1.359,-2.005 2.546,-4.615 3.558,-7.834c1.011,-3.214 1.792,-6.808 2.339,-10.779c0.299,-2.169 0.531,-4.323 0.697,-6.462c-0.093,-1.215 -0.125,-2.462 -0.096,-3.743c0.087,-3.741 0.684,-7.275 1.803,-10.598c1.116,-3.324 2.749,-6.139 4.899,-8.448c2.149,-2.306 4.822,-3.595 8.019,-3.864c1.015,-0.047 1.926,0.012 2.731,0.176l0.139,-6.448c-0.063,-0.67 0.371,-1.236 1.301,-1.695c0.925,-0.457 1.973,-0.749 3.145,-0.877c1.171,-0.126 2.285,-0.111 3.345,0.042c1.061,0.154 1.686,0.468 1.874,0.941c1.53,7.028 2.641,13.91 3.338,20.647c0.698,6.738 1.252,12.735 1.671,17.992c0.415,5.258 0.853,9.526 1.31,12.807c0.457,3.284 1.221,5.022 2.289,5.215c1.152,0.177 2.168,-0.748 3.054,-2.784c0.884,-2.031 1.673,-4.793 2.369,-8.28c0.695,-3.49 1.279,-7.486 1.754,-11.998c0.339,-3.231 0.666,-6.513 0.981,-9.849c-0.036,-0.837 -0.044,-1.688 -0.024,-2.555c0.085,-3.741 0.684,-7.273 1.801,-10.597c1.118,-3.323 2.751,-6.138 4.901,-8.447c2.149,-2.307 4.822,-3.595 8.019,-3.864c1.014,-0.048 1.926,0.011 2.731,0.175l0.137,-6.447c-0.061,-0.67 0.373,-1.237 1.301,-1.696c0.927,-0.457 1.975,-0.749 3.147,-0.877c1.169,-0.125 2.285,-0.111 3.345,0.042c1.061,0.154 1.684,0.469 1.874,0.942c1.53,7.028 2.641,13.909 3.338,20.646c0.696,6.738 1.252,12.735 1.671,17.992c0.415,5.259 0.853,9.526 1.31,12.808c0.457,3.283 1.219,5.019 2.289,5.213c1.15,0.178 2.168,-0.747 3.054,-2.783c0.883,-2.03 1.671,-4.792 2.369,-8.28c0.694,-3.489 1.279,-7.486 1.754,-11.998c0.432,-4.118 0.844,-8.32 1.239,-12.607Zm-74.402,36.807c1.562,0.09 2.657,-0.963 3.293,-3.156c0.634,-2.191 1,-5.032 1.098,-8.519c0.096,-3.486 0.047,-7.346 -0.146,-11.585c-0.196,-4.235 -0.351,-8.395 -0.47,-12.477c-0.569,-0.646 -1.272,-0.92 -2.105,-0.826c-1.08,0.152 -2.041,1.152 -2.877,3c-0.838,1.853 -1.501,4.114 -1.989,6.787c-0.489,2.675 -0.799,5.567 -0.936,8.677c-0.137,3.111 -0.088,5.988 0.146,8.633c0.234,2.645 0.676,4.879 1.332,6.708c0.654,1.824 1.539,2.744 2.654,2.758Zm43.997,-9.574c1.561,0.09 2.656,-0.963 3.294,-3.156c0.633,-2.191 1,-5.032 1.098,-8.519c0.096,-3.487 0.047,-7.346 -0.146,-11.585c-0.197,-4.235 -0.351,-8.396 -0.47,-12.478c-0.569,-0.646 -1.272,-0.919 -2.105,-0.825c-1.082,0.151 -2.041,1.15 -2.877,3c-0.838,1.852 -1.501,4.113 -1.989,6.787c-0.489,2.674 -0.8,5.567 -0.936,8.677c-0.139,3.109 -0.088,5.988 0.146,8.633c0.233,2.644 0.676,4.879 1.332,6.706c0.652,1.825 1.539,2.744 2.653,2.76Zm39.934,-78.394c-0.544,-0.138 -0.949,0.464 -1.213,1.805c-0.266,1.341 -0.426,3.261 -0.48,5.753c-0.058,2.497 -0.016,5.439 0.124,8.83c0.138,3.393 0.364,6.981 0.673,10.764c0.498,-3.615 0.91,-7.021 1.242,-10.218c0.333,-3.196 0.55,-6.025 0.656,-8.487c0.105,-2.462 0.08,-4.445 -0.074,-5.95c-0.159,-1.509 -0.468,-2.339 -0.928,-2.497Z" style="fill:#1d1d1b;fill-rule:nonzero;"/></svg>