<?xml version="1.0" encoding="UTF-8"?><svg id="b" xmlns="http://www.w3.org/2000/svg" viewBox="0 0 286.84 145.27"><defs><style>.e{stroke:#fff;stroke-miterlimit:10;stroke-width:7px;}.e,.f{fill:#fff;}.g,.h{fill-rule:evenodd;}.g,.h,.i,.j,.k,.l,.f{stroke-width:0px;}.g,.k{fill:#252d62;}.h{fill:#fbba33;}.i{fill:#949ca6;}.j{fill:#133478;}.l{fill:#9da1a7;}</style></defs><g id="c"><path class="e" d="m282.85,90.77l-3-1c-4.09-1.21-8.33-1.82-12.59-1.8-7.73,0-14.19,3.45-17.11,8.78-.28-1.47-.92-2.85-1.88-4-3.32-4-9.65-4.79-14.37-4.79h-50.24c-1.92-4.16-5.91-8.77-8.81-11.75-.69-.71-1.49-1.54-2.28-2.38,15.19-1,17.79-10.58,17.9-11l.78-3.07-7.33,2.62c-1.33.49-2.75.69-4.16.58-.85-.08-1.62-.52-2.1-1.22-1.85-2.6-.36-7.41.37-9l1.39-3.1-3.3.75c-.32.08-7.8,1.86-9,9.19-.11.61-.18,1.23-.21,1.85-3.51-1.08-6.72-2.95-9.4-5.46-2.73-2.6-4.16-5.5-3.73-7.56,2-9.71,18.82-15,33.92-14.51l5.44.18-4.39-3.23c-.26-.2-2.75-1.93-8.21-2.68-6.56-.91-14.44,0-23.45,2.59-1.33-2.53-3.42-8.91-4.66-13.26l-1.54-5.39-1.7,5.34c-1.62,5.87-1.62,12.06,0,17.93-1.03.81-1.95,1.75-2.74,2.8-4.77-.72-16.6-8.58-20.78-11.56l-6.88-4.92,4.46,7.18c4,6.4,8.64,11.84,18,17.22-2.33.52-4.85.51-11.37,0-.38,0-.85-.09-1.38-.16-5.37-.74-16.09-3.29-16.2-3.31l-4.73-1.13,3,3.82c1.69,2.14,5.45,4.48,9.6,6.44-3.3.88-4.56,2.84-5,4.7-.23,1.08-.19,2.21.13,3.27l-1.86.69c-11.47,4.22-34.89,12.83-42,28.1-2.22-.36-4.48-.52-6.73-.46H7.5l-3.33,18.9h12.05l-1.3,7.4h-3l-2.66,15.07h23.8l2.67-15.1h-3l1.3-7.4h10.47l-1.33,7.4h-3l-2.67,15.07h21.27c.37,3.85,1.42,6.75,3.17,8.82,2.03,2.36,5.02,3.67,8.13,3.55h0c3.59-.13,7-1.58,9.58-4.08,2.83-2.5,7-8.68,12.65-18.88l.85-1.54h0l1.24-2.27h0l.51-.91.57-1h0l.32-.57-2.25-2.29h2.73l1.36-2.33.83,2.33h2.58l-2.17,2.23.7,2.58-2.44-1.2-.43,2.23h0l-2.55,13.41h35.35v-.17h.08l2.14-12.11h1.14c5.14.06,10.04-2.19,13.34-6.13l-.58,3.29h-3l-2.66,15.07h23.85l2.17-12.29h1.22c3.41.01,6.74-.95,9.62-2.78l-2.66,15.07h56.62l.68-3.87h0c2.28,2.73,5.83,4.11,10.54,4.1,1.31,0,2.63-.1,3.93-.28l2.16-.29.29-1.64c4.01,1.37,8.22,2.05,12.46,2,9.92,0,16.71-4.89,18.15-13.08,1.08-4.61-.85-9.41-4.81-12h6.17l2.5-13.6Zm-149-2.86c2.56-.62,5.21-.8,7.83-.54.7.07,1.38.26,2,.58.51.37,1.09.61,1.71.7h.22c.35.54.81.99,1.34,1.35l-.32,1.8c-2.51-2.53-6.26-3.91-10.66-3.91l-2.12.02Zm46,26.42h-3c1.32-.85,2.51-1.9,3.53-3.1l-.53,3.1Zm33.51-4.87h-7.52l.45-2.53h7.51l-.44,2.53Zm34.14,3.44c.03-1.92-.64-3.78-1.89-5.23,1.17-.79,2.19-1.79,3-2.94.28,3.28,2,6.27,4.69,8.17h-5.8Z"/><path class="i" d="m282.85,90.77l-3-1c-4.09-1.21-8.33-1.82-12.59-1.8-7.73,0-14.19,3.45-17.11,8.78-.28-1.47-.92-2.85-1.88-4-3.32-4-9.65-4.79-14.37-4.79h-52.32l-.68,3.89c-2.52-2.51-6.26-3.89-10.66-3.89h-22.92l-2.66,15.08h3l-2,11.22h-3l-2.66,15.07h23.85l2.17-12.29h1.22c3.41.01,6.74-.95,9.62-2.78l-2.66,15.07h56.62l.68-3.87h0c2.28,2.73,5.83,4.11,10.54,4.1,1.31,0,2.63-.1,3.93-.28l2.16-.29.29-1.64c4.01,1.37,8.22,2.05,12.46,2,9.92,0,16.71-4.89,18.15-13.08,1.08-4.61-.85-9.41-4.81-12h6.17l2.46-13.5Zm-105.95,23.56c1.32-.85,2.51-1.9,3.53-3.1l-.55,3.1h-2.98Zm29-4.87l.45-2.53h7.51l-.44,2.53h-7.52Zm41.6,3.44c.03-1.92-.64-3.78-1.89-5.23,1.17-.79,2.19-1.79,3-2.94.28,3.28,2,6.27,4.69,8.17h-5.8Z"/><polygon class="g" points="202.31 112.93 201.45 117.8 194.14 117.8 195.18 111.94 202.49 111.94 203.63 105.46 196.32 105.46 197.17 100.65 204.48 100.65 203.81 104.46 212.94 104.46 215.22 91.51 184.06 91.51 182.45 100.65 185.38 100.65 182.35 117.8 179.36 117.8 177.76 126.94 208.98 126.94 211.44 112.93 202.31 112.93"/><path class="g" d="m233.93,91.51h-17.22l-1.61,9.14h2.93l-3,17.15h-3l-1.61,9.14h17.93l1.61-9.14h-3.16l1-5.86,1.78-.06c1.3-.13,2.46.83,2.59,2.13.02.25,0,.5-.05.75-1,5.59-.14,14,13.46,12.18l1.61-9.14c-6.73,1.11,2.89-9.79-10.63-9.41-.88,0,9.42-.66,10.66-7.69,1.46-8.14-8.43-9.19-13.29-9.19Zm1.17,11.52c-.28,1.6-1.48,2.43-3.47,2.43h-2.66l.85-4.81h2.68c2,0,2.82,1.16,2.6,2.38h0Z"/><path class="g" d="m267.79,101.96h10.14l1.57-8.63-.52-.17c-3.79-1.11-7.71-1.66-11.66-1.65-8.13,0-14.56,4.31-15.65,10.48-1.31,7.43,4.17,9.93,8.16,11.76,2.35,1.07,4.37,2,4.11,3.44-.15,1.26-1.29,2.15-2.55,2,0,0,0,0,0,0-1.1.08-2.06-.74-2.15-1.84,0-.08,0-.16,0-.24v-.64h-10.36l-1.38,7.86.43.21c4.11,1.73,8.54,2.58,13,2.49,8.48,0,14-3.87,15.22-10.63,1.27-7.21-4.21-9.72-8.22-11.56-2.46-1.13-4.57-2.1-4.3-3.64.06-1.16,1.04-2.05,2.2-2,2.15,0,2.09,1.67,2.05,2l-.09.76Z"/><path class="g" d="m170.22,91.51h-20.42l-1.61,9.14h3l-3,17.15h-3l-1.61,9.14h17.82l1.62-9.14h-3.05l.56-3.15h6.75c5.81,0,12.38-3.32,13.77-11.24,1.45-8.25-4.29-11.9-10.83-11.9Zm-1,11.9c-.31,1.55-1.66,2.68-3.24,2.71h-4l1-5.47h4c1.23-.05,2.27.91,2.31,2.14,0,.21-.01.41-.06.62h0Z"/><path class="i" d="m65.82,104.7c1.27-.97,2.61-1.84,4-2.63-4.46-24,29.17-36.35,43.68-41.68l1.86-.69c-.32-1.06-.36-2.19-.13-3.27.4-1.86,1.66-3.82,5-4.7-4.15-2-7.91-4.3-9.6-6.44l-3-3.82,4.73,1.13c.11,0,10.83,2.57,16.2,3.31.53.07,1,.13,1.38.16,6.52.55,9,.56,11.37,0-9.35-5.38-14-10.82-18-17.22l-4.46-7.18,6.88,4.92c4.18,3,16,10.84,20.78,11.56.79-1.05,1.71-1.99,2.74-2.8-1.62-5.87-1.62-12.06,0-17.93l1.7-5.34,1.54,5.39c1.24,4.35,3.33,10.73,4.66,13.26,9-2.63,16.89-3.5,23.45-2.59,5.46.75,8,2.48,8.21,2.68l4.39,3.23-5.44-.18c-15.1-.49-31.92,4.8-33.92,14.51-.43,2.06,1,5,3.73,7.56,2.68,2.51,5.89,4.38,9.4,5.46.03-.62.1-1.24.21-1.85,1.23-7.33,8.71-9.11,9-9.19l3.3-.75-1.39,3.1c-.73,1.63-2.22,6.44-.37,9,.48.7,1.25,1.14,2.1,1.22,1.41.11,2.83-.09,4.16-.58l7.33-2.62-.81,3.15c-.11.44-2.71,10-17.9,11,.79.84,1.59,1.67,2.28,2.38,5.85,6,16.1,18.65,5,20.82-3,.6-5-1.66-16.93-2.73-.72-.07-14.79-1.59-17.3-5.7h-.22c-.62-.09-1.2-.33-1.71-.7-.62-.32-1.3-.51-2-.58-5.86-.82-14.73,2.25-17.41,4.12-6.04,4.06-9.74,10.81-9.92,18.09l-3.34.43c0-.1-3.13-14-13.64-12.44-5.6.81-8.92,3.92-9.81,6.31-1.06,2.85.85,5.63.85,5.63,0,0-13.49,1-18.71,6.88-.62.69-.5,2.27-.38,3l.54,2-7.33.41s-4.78-11.41,3.25-17.1Z"/><path class="k" d="m63.62,120.15c-1.54-5.51-1-10.51,3.28-14.16,1.47-1.22,3.09-2.23,4.84-3-5.64-23.39,27.83-35.7,42.34-41,1.41-.52,2.64-1,3.64-1.36-.15-.15-.28-.33-.38-.53-.55-1.01-.72-2.18-.48-3.3.48-2.19,2.83-4.81,11.9-3.49-6.62-2.07-14.47-6-16.86-9.05,0,0,13.1,3.11,17.82,3.51,8.6.72,10.56.56,14.29-.69,0-.23.17-1,.21-1.23-9.88-5.28-15-10.58-19.53-17.83,0,0,17.53,12.52,22.7,11.9.97-1.56,2.27-2.9,3.79-3.93-1.59-4-2.26-12.18-.41-18,0,0,3.55,12.45,5.56,14.78,22.66-6.94,31.39-.53,31.39-.53-15.73-.51-33.39,5-35.63,15.85-1.15,5.59,6.86,13.57,16.63,15.59-.23-1.25-.23-2.54,0-3.79,1.06-6.3,7.74-7.82,7.74-7.82,0,0-3,6.74-.22,10.72,1.61,2.26,4.52,2.43,8.19,1.26l4.38-1.56s-2.59,10.24-20,9.81c1.26,1.58,3.26,3.63,4.76,5.17,5.53,5.68,14.31,16.35,6.59,17.76,0,0-1.14-4.39-2.64-3.24s1.16,3.91,1.16,3.91c-3.19-1.58-7.54-1.91-9.67-2.2-.73-.1-2.54-.44-3.29-.54l-2.4-.32c-7.38-1-14.21-2.25-16.89-5.73l-.86-.12c-.36-.06-.71-.21-1-.43-.82-.46-1.73-.75-2.67-.85-6.22-.86-15.58,2.3-18.61,4.41-6.5,4.41-10.46,11.69-10.64,19.54,0,0-2.84-13.08-13.23-13.33-6.84-.18-13.81,4.47-13.75,8.42.06,3.3.71,3.66.71,3.66,0,0-13.88.92-18.52,7.03-1.22,1.62-.14,4.28-.14,4.28l-4.1.43Z"/><path class="h" d="m163.76,70.12c3,0,11.89,1.07,18.7-3.49-9.07,2.58-9.36-4.93-9.19-9.25-2.5,2.51-2.78,6.47-.67,9.31-3.97.02-7.88-.98-11.36-2.89-22.66-12.83-8.19-27.68,8-31.65-8.62.53-13.6,3.54-13.6,3.54,2.45,3.84-3-4.15-3.78-8.69,0,5.5,1.44,9.47,2,9.82-2.22,1.68-4.17,3.71-5.76,6-4.74-.8-9.26-2.59-13.26-5.26,1.74,1.36,7.16,5.43,12.52,7-.57,1.66-.98,3.38-1.22,5.12-.49.43-12.7,2-23.57-.52,12.18,4.17,16.72,4.17,23.93,4.17,1.51,4.12,6.07,9.64,12.26,14.51-1.54-.12-4.26.62-7-2.67.39.96.6,1.97.63,3-2.57-3.44-6.02-6.12-10-7.74-27.32-10.11-21.45,0-20.71.47.43.77.95,1.49,1.54,2.15,0,0-55.44,12.87-48.14,41.77,0,0-11.62,3.86-9.61,12.18-1.72-7.14,10.91-10.81,16.61-11.33-2-8.48,21.66-19.7,29.83-5.9,0,0,1.56-7.48,11.68-13.52,8.33-5,20.68-2.9,20.68-2.9.21-5.25,5.87-5.35,5.87-5.35-4.84,4.82-.89,8.88,3.1,10.18,6.48,2.11,17.36,1.39,21.4,4.1-5.28-3.54,5.42-4.83,4.4-1.19,1.83-6.52-15.92-16.96-15.28-20.97Z"/><path class="f" d="m107.5,76.79c-10.66,3.72-30.88,16.66-25.46,28.88-.91-4.34,6.34-12.57,18.22-11.92,8.22.45,11.61,6,11.61,6,2.06-7.07,9.92-12.84,15.13-14.88,6.48-2.54,14.6-1.8,14.6-1.8-1.31-5.43,5.84-7.08,5.84-7.08-7.94-7.46-27.04-3.66-39.94.8Z"/><path class="i" d="m122.75,81.12c-8.76,4.24-11.42,10.72-10.84,18.65,2.28-5.65,3.84-6.74,7.53-10.14,7.36-6.78,17.84-6.61,17.84-6.61-.75-1.42.84-3.9.84-3.9-2.17-.57-11.28.02-15.37,2Z"/><path class="i" d="m148.2,100.65l.9-5.14c-.43-1.09-1.03-2.1-1.78-3-2.5-3-6.53-4.62-11.33-4.62h-22.92v.18h-.08l-2.31,13.09-2.85-13.13h-14.89l-13.2,21.35-1.93,2.09c-.26-1.21-.8-2.34-1.57-3.31-.13-.17-.27-.33-.42-.48,2.38-1.64,4.01-4.16,4.53-7,.61-3.47,0-6.33-1.82-8.5-3.46-4.12-9.91-4.12-13.76-4.12H7.5l-3.33,18.9h12.05l-1.3,7.4h-3l-2.66,15.07h23.8l2.67-15.1h-3l1.3-7.4h10.47l-1.33,7.4h-3l-2.67,15.07h21.27c.37,3.85,1.42,6.75,3.17,8.82,2.03,2.36,5.02,3.67,8.13,3.55h0c3.59-.13,7-1.58,9.58-4.08,2.83-2.5,7-8.68,12.65-18.88l.85-1.54h0l1.24-2.27h0l.51-.91.57-1h0l.32-.57-2.25-2.29h2.73l1.36-2.33.83,2.33h2.58l-2.17,2.23.7,2.58-2.44-1.2-.43,2.23h0l-2.55,13.41h35.35v-.17h.08l2.14-12.11h1.14c8.3.26,15.51-5.67,16.85-13.87.16-.88.25-1.77.27-2.66l-1.78-.02Zm-36,9l-1.39-6.46h2.53l-1.14,6.46Z"/><polygon class="g" points="43.6 104.46 45.88 91.51 9.96 91.51 7.68 104.46 16.81 104.46 17.48 100.65 20.42 100.65 17.39 117.8 14.4 117.8 12.79 126.94 30.56 126.94 32.17 117.8 29.18 117.8 32.21 100.65 35.14 100.65 34.47 104.46 43.6 104.46"/><path class="l" d="m132.61,97.23h-6.48l-2,11.41h7.53c3.03-.02,5.61-2.19,6.17-5.16.3-1.56-.11-3.18-1.12-4.41-1.02-1.19-2.53-1.87-4.1-1.84Z"/><path class="f" d="m128.36,144.11l.43-1.88h1.38l1.89-8.23h-1.89l-.63,2.8h-1.93l1.08-4.69h10.67l-1.08,4.69h-1.92l.65-2.8h-1.89l-1.89,8.23h1.38l-.44,1.88h-5.81Z"/><path class="f" d="m137.79,144.11l.42-1.88h1.52l1.91-8.23h-1.7l.43-1.89h6.06l-.43,1.89h-1.31l-1.9,8.23h1.71l-.44,1.88h-6.27Z"/><path class="f" d="m145.11,144.11l.44-1.88h1.13l1.9-8.23h-1.43l.44-1.89h5.6l-.44,1.89h-1.13l-1.89,8.23h3.36l.84-3.68h2.31l-1.3,5.56h-9.83Z"/><path class="f" d="m156.16,142.24h1.19l1.9-8.24h-1.18l.43-1.89h5.44c.98-.07,1.96.22,2.75.81.62.53.97,1.31.94,2.13,0,1.53-.91,2.49-2.73,2.88,1.09.49,1.8,1.56,1.84,2.76.03.99-.44,1.93-1.25,2.5-.82.61-1.81.93-2.83.92h-6.94l.44-1.87Zm4.22.09h1.44c.57.03,1.12-.22,1.47-.66.35-.44.53-.99.52-1.55,0-.38-.15-.74-.42-1-.31-.28-.72-.42-1.14-.39h-1l-.87,3.6Zm1.24-5.33h1.11c.92.14,1.78-.49,1.93-1.42.02-.16.03-.32,0-.47,0-.78-.42-1.17-1.28-1.17h-1.06l-.7,3.06Z"/><path class="f" d="m169.5,134l.43-1.89h5.21l-.43,1.89h-1.21l-1.4,6c-.06.25-.09.5-.1.76,0,1,.56,1.49,1.65,1.49.58.02,1.13-.22,1.51-.66.48-.63.81-1.37.94-2.15l1.25-5.4h-1.13l.42-1.89h4.12l-.43,1.89h-.91l-1.4,6c-.21,1.23-.81,2.35-1.71,3.22-.93.75-2.1,1.13-3.29,1.06-.99.02-1.97-.25-2.81-.77-.84-.57-1.3-1.55-1.21-2.56,0-.51.07-1.02.19-1.51l1.26-5.47h-.95Z"/><path class="f" d="m179.34,144.11l.44-1.88h1.19l1.9-8.23h-1.18l.42-1.89h6.24c.96-.04,1.89.32,2.56,1,.6.61.94,1.44.92,2.3,0,.76-.25,1.51-.72,2.11-.48.64-1.21,1.04-2,1.12l1,3.63h1.2l-.44,1.88h-3.07l-1.3-5.37h-1.7l-.8,3.45h1.15l-.46,1.88h-5.35Zm5.82-6.87h1.34c1.51,0,2.27-.63,2.27-1.89.02-.37-.12-.74-.39-1-.28-.24-.63-.37-1-.36h-1.38l-.84,3.25Z"/><path class="f" d="m204.5,132.11h1.92l-.88,3.86h-1.92c0-.58-.29-1.12-.77-1.45-.53-.38-1.18-.57-1.83-.55-1.31,0-2.56.57-3.41,1.57-.95.99-1.48,2.32-1.46,3.7-.02.74.26,1.46.78,2,.53.53,1.25.82,2,.8,1.6,0,2.57-.56,2.89-1.69h-1.89l.43-1.87h5.54c-.21,1.66-1.07,3.17-2.4,4.19-1.4,1.06-3.11,1.61-4.86,1.56-1.54.08-3.05-.5-4.15-1.58-1.01-1.01-1.56-2.38-1.54-3.81.02-1.9.89-3.69,2.37-4.88,1.53-1.37,3.51-2.11,5.56-2.08,1.24-.05,2.45.39,3.38,1.21l.24-.98Z"/><g id="d"><path class="k" d="m165.61,74.56s-1.65,2.42-.65,3.73,3,.63,3.57.81.59.4.59.4c.05-.2.05-.42,0-.62-.41-.91-.85-.87-2-2.17-.7-.55-1.23-1.3-1.51-2.15Z"/></g><path class="k" d="m170.24,89.07s-4.56-.69-5.23-.81c-1.85-.34-3.78-.65-5.23-.79-4.26-.41-7.13-1.84-7.9-3.42-1-2.12,1.6-5.59,1.6-5.59.45,5.42,3.16,6.93,16.76,10.61Z"/><path class="g" d="m135.86,91.57h-20.43l-1.61,9.13h3l-3,17.16h-3l-5.72-26.35h-11.4l-15.83,26.35c-3.14,5.45-4.43,6.57-4,4.41,1-5.2,4.26-14.25-6.63-13.88-.89,0,8.94-.72,10.18-7.75,1.62-9.19-8-9.13-12.85-9.13h-17.22l-1.61,9.14h2.93l-3,17.15h-3l-1.61,9.14h17.92l1.61-9.14h-3.16l1-5.86,1.78-.06c1.31-.12,2.47.85,2.59,2.16.02.24,0,.49-.05.72-2.61,14.78-1.13,23.39,7.55,23.38,3.04-.16,5.94-1.35,8.21-3.39,4-3.4,14.26-21.73,14.26-21.73l-4.06-5.17h6.08l3.43-5.43,1.93,5.43h6l-5.06,5.17,1.66,6-3.4-1.69-1.6,9.65h29.26l1.61-9.13h-3l.55-3.15h6.76c5.81,0,12.37-3.33,13.77-11.24,1.41-8.24-4.31-11.89-10.84-11.89Zm-70.12,11.46c-.28,1.6-1.48,2.43-3.47,2.43h-2.66l.85-4.81h2.66c1.99,0,2.84,1.16,2.62,2.38Zm69.13.44c-.32,1.55-1.67,2.67-3.25,2.71h-4l1-5.48h4c1.24-.04,2.27.93,2.31,2.16,0,.2-.01.41-.06.61Z"/><path class="j" d="m152.33,59.33l.28.34h0l-.28-.34Z"/></g></svg>
